%TF.GenerationSoftware,KiCad,Pcbnew,8.0.9-8.0.9-0~ubuntu22.04.1*%
%TF.CreationDate,2025-09-30T16:22:56+02:00*%
%TF.ProjectId,Pin_Test,50696e5f-5465-4737-942e-6b696361645f,rev?*%
%TF.SameCoordinates,Original*%
%TF.FileFunction,Legend,Top*%
%TF.FilePolarity,Positive*%
%FSLAX46Y46*%
G04 Gerber Fmt 4.6, Leading zero omitted, Abs format (unit mm)*
G04 Created by KiCad (PCBNEW 8.0.9-8.0.9-0~ubuntu22.04.1) date 2025-09-30 16:22:56*
%MOMM*%
%LPD*%
G01*
G04 APERTURE LIST*
G04 Aperture macros list*
%AMRoundRect*
0 Rectangle with rounded corners*
0 $1 Rounding radius*
0 $2 $3 $4 $5 $6 $7 $8 $9 X,Y pos of 4 corners*
0 Add a 4 corners polygon primitive as box body*
4,1,4,$2,$3,$4,$5,$6,$7,$8,$9,$2,$3,0*
0 Add four circle primitives for the rounded corners*
1,1,$1+$1,$2,$3*
1,1,$1+$1,$4,$5*
1,1,$1+$1,$6,$7*
1,1,$1+$1,$8,$9*
0 Add four rect primitives between the rounded corners*
20,1,$1+$1,$2,$3,$4,$5,0*
20,1,$1+$1,$4,$5,$6,$7,0*
20,1,$1+$1,$6,$7,$8,$9,0*
20,1,$1+$1,$8,$9,$2,$3,0*%
G04 Aperture macros list end*
%ADD10C,0.125000*%
%ADD11C,0.200000*%
%ADD12C,0.100000*%
%ADD13C,0.120000*%
%ADD14C,2.200000*%
%ADD15RoundRect,0.237500X0.237500X-0.287500X0.237500X0.287500X-0.237500X0.287500X-0.237500X-0.287500X0*%
%ADD16RoundRect,0.237500X-0.237500X0.287500X-0.237500X-0.287500X0.237500X-0.287500X0.237500X0.287500X0*%
%ADD17RoundRect,0.237500X-0.237500X0.250000X-0.237500X-0.250000X0.237500X-0.250000X0.237500X0.250000X0*%
G04 APERTURE END LIST*
D10*
X110760880Y-121442857D02*
X110808500Y-121490476D01*
X110808500Y-121490476D02*
X110856119Y-121633333D01*
X110856119Y-121633333D02*
X110856119Y-121728571D01*
X110856119Y-121728571D02*
X110808500Y-121871428D01*
X110808500Y-121871428D02*
X110713261Y-121966666D01*
X110713261Y-121966666D02*
X110618023Y-122014285D01*
X110618023Y-122014285D02*
X110427547Y-122061904D01*
X110427547Y-122061904D02*
X110284690Y-122061904D01*
X110284690Y-122061904D02*
X110094214Y-122014285D01*
X110094214Y-122014285D02*
X109998976Y-121966666D01*
X109998976Y-121966666D02*
X109903738Y-121871428D01*
X109903738Y-121871428D02*
X109856119Y-121728571D01*
X109856119Y-121728571D02*
X109856119Y-121633333D01*
X109856119Y-121633333D02*
X109903738Y-121490476D01*
X109903738Y-121490476D02*
X109951357Y-121442857D01*
X110856119Y-120490476D02*
X110856119Y-121061904D01*
X110856119Y-120776190D02*
X109856119Y-120776190D01*
X109856119Y-120776190D02*
X109998976Y-120871428D01*
X109998976Y-120871428D02*
X110094214Y-120966666D01*
X110094214Y-120966666D02*
X110141833Y-121061904D01*
X109856119Y-119633333D02*
X109856119Y-119823809D01*
X109856119Y-119823809D02*
X109903738Y-119919047D01*
X109903738Y-119919047D02*
X109951357Y-119966666D01*
X109951357Y-119966666D02*
X110094214Y-120061904D01*
X110094214Y-120061904D02*
X110284690Y-120109523D01*
X110284690Y-120109523D02*
X110665642Y-120109523D01*
X110665642Y-120109523D02*
X110760880Y-120061904D01*
X110760880Y-120061904D02*
X110808500Y-120014285D01*
X110808500Y-120014285D02*
X110856119Y-119919047D01*
X110856119Y-119919047D02*
X110856119Y-119728571D01*
X110856119Y-119728571D02*
X110808500Y-119633333D01*
X110808500Y-119633333D02*
X110760880Y-119585714D01*
X110760880Y-119585714D02*
X110665642Y-119538095D01*
X110665642Y-119538095D02*
X110427547Y-119538095D01*
X110427547Y-119538095D02*
X110332309Y-119585714D01*
X110332309Y-119585714D02*
X110284690Y-119633333D01*
X110284690Y-119633333D02*
X110237071Y-119728571D01*
X110237071Y-119728571D02*
X110237071Y-119919047D01*
X110237071Y-119919047D02*
X110284690Y-120014285D01*
X110284690Y-120014285D02*
X110332309Y-120061904D01*
X110332309Y-120061904D02*
X110427547Y-120109523D01*
X105760880Y-121642857D02*
X105808500Y-121690476D01*
X105808500Y-121690476D02*
X105856119Y-121833333D01*
X105856119Y-121833333D02*
X105856119Y-121928571D01*
X105856119Y-121928571D02*
X105808500Y-122071428D01*
X105808500Y-122071428D02*
X105713261Y-122166666D01*
X105713261Y-122166666D02*
X105618023Y-122214285D01*
X105618023Y-122214285D02*
X105427547Y-122261904D01*
X105427547Y-122261904D02*
X105284690Y-122261904D01*
X105284690Y-122261904D02*
X105094214Y-122214285D01*
X105094214Y-122214285D02*
X104998976Y-122166666D01*
X104998976Y-122166666D02*
X104903738Y-122071428D01*
X104903738Y-122071428D02*
X104856119Y-121928571D01*
X104856119Y-121928571D02*
X104856119Y-121833333D01*
X104856119Y-121833333D02*
X104903738Y-121690476D01*
X104903738Y-121690476D02*
X104951357Y-121642857D01*
X105856119Y-120690476D02*
X105856119Y-121261904D01*
X105856119Y-120976190D02*
X104856119Y-120976190D01*
X104856119Y-120976190D02*
X104998976Y-121071428D01*
X104998976Y-121071428D02*
X105094214Y-121166666D01*
X105094214Y-121166666D02*
X105141833Y-121261904D01*
X104951357Y-120309523D02*
X104903738Y-120261904D01*
X104903738Y-120261904D02*
X104856119Y-120166666D01*
X104856119Y-120166666D02*
X104856119Y-119928571D01*
X104856119Y-119928571D02*
X104903738Y-119833333D01*
X104903738Y-119833333D02*
X104951357Y-119785714D01*
X104951357Y-119785714D02*
X105046595Y-119738095D01*
X105046595Y-119738095D02*
X105141833Y-119738095D01*
X105141833Y-119738095D02*
X105284690Y-119785714D01*
X105284690Y-119785714D02*
X105856119Y-120357142D01*
X105856119Y-120357142D02*
X105856119Y-119738095D01*
X98160880Y-120766666D02*
X98208500Y-120814285D01*
X98208500Y-120814285D02*
X98256119Y-120957142D01*
X98256119Y-120957142D02*
X98256119Y-121052380D01*
X98256119Y-121052380D02*
X98208500Y-121195237D01*
X98208500Y-121195237D02*
X98113261Y-121290475D01*
X98113261Y-121290475D02*
X98018023Y-121338094D01*
X98018023Y-121338094D02*
X97827547Y-121385713D01*
X97827547Y-121385713D02*
X97684690Y-121385713D01*
X97684690Y-121385713D02*
X97494214Y-121338094D01*
X97494214Y-121338094D02*
X97398976Y-121290475D01*
X97398976Y-121290475D02*
X97303738Y-121195237D01*
X97303738Y-121195237D02*
X97256119Y-121052380D01*
X97256119Y-121052380D02*
X97256119Y-120957142D01*
X97256119Y-120957142D02*
X97303738Y-120814285D01*
X97303738Y-120814285D02*
X97351357Y-120766666D01*
X97256119Y-119909523D02*
X97256119Y-120099999D01*
X97256119Y-120099999D02*
X97303738Y-120195237D01*
X97303738Y-120195237D02*
X97351357Y-120242856D01*
X97351357Y-120242856D02*
X97494214Y-120338094D01*
X97494214Y-120338094D02*
X97684690Y-120385713D01*
X97684690Y-120385713D02*
X98065642Y-120385713D01*
X98065642Y-120385713D02*
X98160880Y-120338094D01*
X98160880Y-120338094D02*
X98208500Y-120290475D01*
X98208500Y-120290475D02*
X98256119Y-120195237D01*
X98256119Y-120195237D02*
X98256119Y-120004761D01*
X98256119Y-120004761D02*
X98208500Y-119909523D01*
X98208500Y-119909523D02*
X98160880Y-119861904D01*
X98160880Y-119861904D02*
X98065642Y-119814285D01*
X98065642Y-119814285D02*
X97827547Y-119814285D01*
X97827547Y-119814285D02*
X97732309Y-119861904D01*
X97732309Y-119861904D02*
X97684690Y-119909523D01*
X97684690Y-119909523D02*
X97637071Y-120004761D01*
X97637071Y-120004761D02*
X97637071Y-120195237D01*
X97637071Y-120195237D02*
X97684690Y-120290475D01*
X97684690Y-120290475D02*
X97732309Y-120338094D01*
X97732309Y-120338094D02*
X97827547Y-120385713D01*
X90756119Y-116838094D02*
X89756119Y-116838094D01*
X89756119Y-116838094D02*
X89756119Y-116457142D01*
X89756119Y-116457142D02*
X89803738Y-116361904D01*
X89803738Y-116361904D02*
X89851357Y-116314285D01*
X89851357Y-116314285D02*
X89946595Y-116266666D01*
X89946595Y-116266666D02*
X90089452Y-116266666D01*
X90089452Y-116266666D02*
X90184690Y-116314285D01*
X90184690Y-116314285D02*
X90232309Y-116361904D01*
X90232309Y-116361904D02*
X90279928Y-116457142D01*
X90279928Y-116457142D02*
X90279928Y-116838094D01*
X90756119Y-115314285D02*
X90756119Y-115885713D01*
X90756119Y-115599999D02*
X89756119Y-115599999D01*
X89756119Y-115599999D02*
X89898976Y-115695237D01*
X89898976Y-115695237D02*
X89994214Y-115790475D01*
X89994214Y-115790475D02*
X90041833Y-115885713D01*
X87206119Y-117433332D02*
X88206119Y-117099999D01*
X88206119Y-117099999D02*
X87206119Y-116766666D01*
X88110880Y-115861904D02*
X88158500Y-115909523D01*
X88158500Y-115909523D02*
X88206119Y-116052380D01*
X88206119Y-116052380D02*
X88206119Y-116147618D01*
X88206119Y-116147618D02*
X88158500Y-116290475D01*
X88158500Y-116290475D02*
X88063261Y-116385713D01*
X88063261Y-116385713D02*
X87968023Y-116433332D01*
X87968023Y-116433332D02*
X87777547Y-116480951D01*
X87777547Y-116480951D02*
X87634690Y-116480951D01*
X87634690Y-116480951D02*
X87444214Y-116433332D01*
X87444214Y-116433332D02*
X87348976Y-116385713D01*
X87348976Y-116385713D02*
X87253738Y-116290475D01*
X87253738Y-116290475D02*
X87206119Y-116147618D01*
X87206119Y-116147618D02*
X87206119Y-116052380D01*
X87206119Y-116052380D02*
X87253738Y-115909523D01*
X87253738Y-115909523D02*
X87301357Y-115861904D01*
X88110880Y-114861904D02*
X88158500Y-114909523D01*
X88158500Y-114909523D02*
X88206119Y-115052380D01*
X88206119Y-115052380D02*
X88206119Y-115147618D01*
X88206119Y-115147618D02*
X88158500Y-115290475D01*
X88158500Y-115290475D02*
X88063261Y-115385713D01*
X88063261Y-115385713D02*
X87968023Y-115433332D01*
X87968023Y-115433332D02*
X87777547Y-115480951D01*
X87777547Y-115480951D02*
X87634690Y-115480951D01*
X87634690Y-115480951D02*
X87444214Y-115433332D01*
X87444214Y-115433332D02*
X87348976Y-115385713D01*
X87348976Y-115385713D02*
X87253738Y-115290475D01*
X87253738Y-115290475D02*
X87206119Y-115147618D01*
X87206119Y-115147618D02*
X87206119Y-115052380D01*
X87206119Y-115052380D02*
X87253738Y-114909523D01*
X87253738Y-114909523D02*
X87301357Y-114861904D01*
X113360880Y-121242857D02*
X113408500Y-121290476D01*
X113408500Y-121290476D02*
X113456119Y-121433333D01*
X113456119Y-121433333D02*
X113456119Y-121528571D01*
X113456119Y-121528571D02*
X113408500Y-121671428D01*
X113408500Y-121671428D02*
X113313261Y-121766666D01*
X113313261Y-121766666D02*
X113218023Y-121814285D01*
X113218023Y-121814285D02*
X113027547Y-121861904D01*
X113027547Y-121861904D02*
X112884690Y-121861904D01*
X112884690Y-121861904D02*
X112694214Y-121814285D01*
X112694214Y-121814285D02*
X112598976Y-121766666D01*
X112598976Y-121766666D02*
X112503738Y-121671428D01*
X112503738Y-121671428D02*
X112456119Y-121528571D01*
X112456119Y-121528571D02*
X112456119Y-121433333D01*
X112456119Y-121433333D02*
X112503738Y-121290476D01*
X112503738Y-121290476D02*
X112551357Y-121242857D01*
X113456119Y-120290476D02*
X113456119Y-120861904D01*
X113456119Y-120576190D02*
X112456119Y-120576190D01*
X112456119Y-120576190D02*
X112598976Y-120671428D01*
X112598976Y-120671428D02*
X112694214Y-120766666D01*
X112694214Y-120766666D02*
X112741833Y-120861904D01*
X112884690Y-119719047D02*
X112837071Y-119814285D01*
X112837071Y-119814285D02*
X112789452Y-119861904D01*
X112789452Y-119861904D02*
X112694214Y-119909523D01*
X112694214Y-119909523D02*
X112646595Y-119909523D01*
X112646595Y-119909523D02*
X112551357Y-119861904D01*
X112551357Y-119861904D02*
X112503738Y-119814285D01*
X112503738Y-119814285D02*
X112456119Y-119719047D01*
X112456119Y-119719047D02*
X112456119Y-119528571D01*
X112456119Y-119528571D02*
X112503738Y-119433333D01*
X112503738Y-119433333D02*
X112551357Y-119385714D01*
X112551357Y-119385714D02*
X112646595Y-119338095D01*
X112646595Y-119338095D02*
X112694214Y-119338095D01*
X112694214Y-119338095D02*
X112789452Y-119385714D01*
X112789452Y-119385714D02*
X112837071Y-119433333D01*
X112837071Y-119433333D02*
X112884690Y-119528571D01*
X112884690Y-119528571D02*
X112884690Y-119719047D01*
X112884690Y-119719047D02*
X112932309Y-119814285D01*
X112932309Y-119814285D02*
X112979928Y-119861904D01*
X112979928Y-119861904D02*
X113075166Y-119909523D01*
X113075166Y-119909523D02*
X113265642Y-119909523D01*
X113265642Y-119909523D02*
X113360880Y-119861904D01*
X113360880Y-119861904D02*
X113408500Y-119814285D01*
X113408500Y-119814285D02*
X113456119Y-119719047D01*
X113456119Y-119719047D02*
X113456119Y-119528571D01*
X113456119Y-119528571D02*
X113408500Y-119433333D01*
X113408500Y-119433333D02*
X113360880Y-119385714D01*
X113360880Y-119385714D02*
X113265642Y-119338095D01*
X113265642Y-119338095D02*
X113075166Y-119338095D01*
X113075166Y-119338095D02*
X112979928Y-119385714D01*
X112979928Y-119385714D02*
X112932309Y-119433333D01*
X112932309Y-119433333D02*
X112884690Y-119528571D01*
X118656119Y-122028570D02*
X117656119Y-122028570D01*
X117656119Y-122028570D02*
X118370404Y-121695237D01*
X118370404Y-121695237D02*
X117656119Y-121361904D01*
X117656119Y-121361904D02*
X118656119Y-121361904D01*
X117656119Y-120695237D02*
X117656119Y-120599999D01*
X117656119Y-120599999D02*
X117703738Y-120504761D01*
X117703738Y-120504761D02*
X117751357Y-120457142D01*
X117751357Y-120457142D02*
X117846595Y-120409523D01*
X117846595Y-120409523D02*
X118037071Y-120361904D01*
X118037071Y-120361904D02*
X118275166Y-120361904D01*
X118275166Y-120361904D02*
X118465642Y-120409523D01*
X118465642Y-120409523D02*
X118560880Y-120457142D01*
X118560880Y-120457142D02*
X118608500Y-120504761D01*
X118608500Y-120504761D02*
X118656119Y-120599999D01*
X118656119Y-120599999D02*
X118656119Y-120695237D01*
X118656119Y-120695237D02*
X118608500Y-120790475D01*
X118608500Y-120790475D02*
X118560880Y-120838094D01*
X118560880Y-120838094D02*
X118465642Y-120885713D01*
X118465642Y-120885713D02*
X118275166Y-120933332D01*
X118275166Y-120933332D02*
X118037071Y-120933332D01*
X118037071Y-120933332D02*
X117846595Y-120885713D01*
X117846595Y-120885713D02*
X117751357Y-120838094D01*
X117751357Y-120838094D02*
X117703738Y-120790475D01*
X117703738Y-120790475D02*
X117656119Y-120695237D01*
X118275166Y-119933332D02*
X118275166Y-119171428D01*
X118656119Y-119552380D02*
X117894214Y-119552380D01*
X121256119Y-117828570D02*
X120256119Y-117828570D01*
X120256119Y-117828570D02*
X120970404Y-117495237D01*
X120970404Y-117495237D02*
X120256119Y-117161904D01*
X120256119Y-117161904D02*
X121256119Y-117161904D01*
X121256119Y-116161904D02*
X121256119Y-116733332D01*
X121256119Y-116447618D02*
X120256119Y-116447618D01*
X120256119Y-116447618D02*
X120398976Y-116542856D01*
X120398976Y-116542856D02*
X120494214Y-116638094D01*
X120494214Y-116638094D02*
X120541833Y-116733332D01*
X120875166Y-115733332D02*
X120875166Y-114971428D01*
X95760880Y-120566666D02*
X95808500Y-120614285D01*
X95808500Y-120614285D02*
X95856119Y-120757142D01*
X95856119Y-120757142D02*
X95856119Y-120852380D01*
X95856119Y-120852380D02*
X95808500Y-120995237D01*
X95808500Y-120995237D02*
X95713261Y-121090475D01*
X95713261Y-121090475D02*
X95618023Y-121138094D01*
X95618023Y-121138094D02*
X95427547Y-121185713D01*
X95427547Y-121185713D02*
X95284690Y-121185713D01*
X95284690Y-121185713D02*
X95094214Y-121138094D01*
X95094214Y-121138094D02*
X94998976Y-121090475D01*
X94998976Y-121090475D02*
X94903738Y-120995237D01*
X94903738Y-120995237D02*
X94856119Y-120852380D01*
X94856119Y-120852380D02*
X94856119Y-120757142D01*
X94856119Y-120757142D02*
X94903738Y-120614285D01*
X94903738Y-120614285D02*
X94951357Y-120566666D01*
X95189452Y-119709523D02*
X95856119Y-119709523D01*
X94808500Y-119947618D02*
X95522785Y-120185713D01*
X95522785Y-120185713D02*
X95522785Y-119566666D01*
X113660880Y-117142857D02*
X113708500Y-117190476D01*
X113708500Y-117190476D02*
X113756119Y-117333333D01*
X113756119Y-117333333D02*
X113756119Y-117428571D01*
X113756119Y-117428571D02*
X113708500Y-117571428D01*
X113708500Y-117571428D02*
X113613261Y-117666666D01*
X113613261Y-117666666D02*
X113518023Y-117714285D01*
X113518023Y-117714285D02*
X113327547Y-117761904D01*
X113327547Y-117761904D02*
X113184690Y-117761904D01*
X113184690Y-117761904D02*
X112994214Y-117714285D01*
X112994214Y-117714285D02*
X112898976Y-117666666D01*
X112898976Y-117666666D02*
X112803738Y-117571428D01*
X112803738Y-117571428D02*
X112756119Y-117428571D01*
X112756119Y-117428571D02*
X112756119Y-117333333D01*
X112756119Y-117333333D02*
X112803738Y-117190476D01*
X112803738Y-117190476D02*
X112851357Y-117142857D01*
X113756119Y-116190476D02*
X113756119Y-116761904D01*
X113756119Y-116476190D02*
X112756119Y-116476190D01*
X112756119Y-116476190D02*
X112898976Y-116571428D01*
X112898976Y-116571428D02*
X112994214Y-116666666D01*
X112994214Y-116666666D02*
X113041833Y-116761904D01*
X113756119Y-115714285D02*
X113756119Y-115523809D01*
X113756119Y-115523809D02*
X113708500Y-115428571D01*
X113708500Y-115428571D02*
X113660880Y-115380952D01*
X113660880Y-115380952D02*
X113518023Y-115285714D01*
X113518023Y-115285714D02*
X113327547Y-115238095D01*
X113327547Y-115238095D02*
X112946595Y-115238095D01*
X112946595Y-115238095D02*
X112851357Y-115285714D01*
X112851357Y-115285714D02*
X112803738Y-115333333D01*
X112803738Y-115333333D02*
X112756119Y-115428571D01*
X112756119Y-115428571D02*
X112756119Y-115619047D01*
X112756119Y-115619047D02*
X112803738Y-115714285D01*
X112803738Y-115714285D02*
X112851357Y-115761904D01*
X112851357Y-115761904D02*
X112946595Y-115809523D01*
X112946595Y-115809523D02*
X113184690Y-115809523D01*
X113184690Y-115809523D02*
X113279928Y-115761904D01*
X113279928Y-115761904D02*
X113327547Y-115714285D01*
X113327547Y-115714285D02*
X113375166Y-115619047D01*
X113375166Y-115619047D02*
X113375166Y-115428571D01*
X113375166Y-115428571D02*
X113327547Y-115333333D01*
X113327547Y-115333333D02*
X113279928Y-115285714D01*
X113279928Y-115285714D02*
X113184690Y-115238095D01*
X93306119Y-116988094D02*
X92306119Y-116988094D01*
X92306119Y-116988094D02*
X92306119Y-116607142D01*
X92306119Y-116607142D02*
X92353738Y-116511904D01*
X92353738Y-116511904D02*
X92401357Y-116464285D01*
X92401357Y-116464285D02*
X92496595Y-116416666D01*
X92496595Y-116416666D02*
X92639452Y-116416666D01*
X92639452Y-116416666D02*
X92734690Y-116464285D01*
X92734690Y-116464285D02*
X92782309Y-116511904D01*
X92782309Y-116511904D02*
X92829928Y-116607142D01*
X92829928Y-116607142D02*
X92829928Y-116988094D01*
X92306119Y-116083332D02*
X92306119Y-115464285D01*
X92306119Y-115464285D02*
X92687071Y-115797618D01*
X92687071Y-115797618D02*
X92687071Y-115654761D01*
X92687071Y-115654761D02*
X92734690Y-115559523D01*
X92734690Y-115559523D02*
X92782309Y-115511904D01*
X92782309Y-115511904D02*
X92877547Y-115464285D01*
X92877547Y-115464285D02*
X93115642Y-115464285D01*
X93115642Y-115464285D02*
X93210880Y-115511904D01*
X93210880Y-115511904D02*
X93258500Y-115559523D01*
X93258500Y-115559523D02*
X93306119Y-115654761D01*
X93306119Y-115654761D02*
X93306119Y-115940475D01*
X93306119Y-115940475D02*
X93258500Y-116035713D01*
X93258500Y-116035713D02*
X93210880Y-116083332D01*
X111110880Y-117092857D02*
X111158500Y-117140476D01*
X111158500Y-117140476D02*
X111206119Y-117283333D01*
X111206119Y-117283333D02*
X111206119Y-117378571D01*
X111206119Y-117378571D02*
X111158500Y-117521428D01*
X111158500Y-117521428D02*
X111063261Y-117616666D01*
X111063261Y-117616666D02*
X110968023Y-117664285D01*
X110968023Y-117664285D02*
X110777547Y-117711904D01*
X110777547Y-117711904D02*
X110634690Y-117711904D01*
X110634690Y-117711904D02*
X110444214Y-117664285D01*
X110444214Y-117664285D02*
X110348976Y-117616666D01*
X110348976Y-117616666D02*
X110253738Y-117521428D01*
X110253738Y-117521428D02*
X110206119Y-117378571D01*
X110206119Y-117378571D02*
X110206119Y-117283333D01*
X110206119Y-117283333D02*
X110253738Y-117140476D01*
X110253738Y-117140476D02*
X110301357Y-117092857D01*
X111206119Y-116140476D02*
X111206119Y-116711904D01*
X111206119Y-116426190D02*
X110206119Y-116426190D01*
X110206119Y-116426190D02*
X110348976Y-116521428D01*
X110348976Y-116521428D02*
X110444214Y-116616666D01*
X110444214Y-116616666D02*
X110491833Y-116711904D01*
X110206119Y-115807142D02*
X110206119Y-115140476D01*
X110206119Y-115140476D02*
X111206119Y-115569047D01*
X90256119Y-121138094D02*
X89256119Y-121138094D01*
X89256119Y-121138094D02*
X89256119Y-120757142D01*
X89256119Y-120757142D02*
X89303738Y-120661904D01*
X89303738Y-120661904D02*
X89351357Y-120614285D01*
X89351357Y-120614285D02*
X89446595Y-120566666D01*
X89446595Y-120566666D02*
X89589452Y-120566666D01*
X89589452Y-120566666D02*
X89684690Y-120614285D01*
X89684690Y-120614285D02*
X89732309Y-120661904D01*
X89732309Y-120661904D02*
X89779928Y-120757142D01*
X89779928Y-120757142D02*
X89779928Y-121138094D01*
X89256119Y-119947618D02*
X89256119Y-119852380D01*
X89256119Y-119852380D02*
X89303738Y-119757142D01*
X89303738Y-119757142D02*
X89351357Y-119709523D01*
X89351357Y-119709523D02*
X89446595Y-119661904D01*
X89446595Y-119661904D02*
X89637071Y-119614285D01*
X89637071Y-119614285D02*
X89875166Y-119614285D01*
X89875166Y-119614285D02*
X90065642Y-119661904D01*
X90065642Y-119661904D02*
X90160880Y-119709523D01*
X90160880Y-119709523D02*
X90208500Y-119757142D01*
X90208500Y-119757142D02*
X90256119Y-119852380D01*
X90256119Y-119852380D02*
X90256119Y-119947618D01*
X90256119Y-119947618D02*
X90208500Y-120042856D01*
X90208500Y-120042856D02*
X90160880Y-120090475D01*
X90160880Y-120090475D02*
X90065642Y-120138094D01*
X90065642Y-120138094D02*
X89875166Y-120185713D01*
X89875166Y-120185713D02*
X89637071Y-120185713D01*
X89637071Y-120185713D02*
X89446595Y-120138094D01*
X89446595Y-120138094D02*
X89351357Y-120090475D01*
X89351357Y-120090475D02*
X89303738Y-120042856D01*
X89303738Y-120042856D02*
X89256119Y-119947618D01*
X121156119Y-122028570D02*
X120156119Y-122028570D01*
X120156119Y-122028570D02*
X120870404Y-121695237D01*
X120870404Y-121695237D02*
X120156119Y-121361904D01*
X120156119Y-121361904D02*
X121156119Y-121361904D01*
X120156119Y-120695237D02*
X120156119Y-120599999D01*
X120156119Y-120599999D02*
X120203738Y-120504761D01*
X120203738Y-120504761D02*
X120251357Y-120457142D01*
X120251357Y-120457142D02*
X120346595Y-120409523D01*
X120346595Y-120409523D02*
X120537071Y-120361904D01*
X120537071Y-120361904D02*
X120775166Y-120361904D01*
X120775166Y-120361904D02*
X120965642Y-120409523D01*
X120965642Y-120409523D02*
X121060880Y-120457142D01*
X121060880Y-120457142D02*
X121108500Y-120504761D01*
X121108500Y-120504761D02*
X121156119Y-120599999D01*
X121156119Y-120599999D02*
X121156119Y-120695237D01*
X121156119Y-120695237D02*
X121108500Y-120790475D01*
X121108500Y-120790475D02*
X121060880Y-120838094D01*
X121060880Y-120838094D02*
X120965642Y-120885713D01*
X120965642Y-120885713D02*
X120775166Y-120933332D01*
X120775166Y-120933332D02*
X120537071Y-120933332D01*
X120537071Y-120933332D02*
X120346595Y-120885713D01*
X120346595Y-120885713D02*
X120251357Y-120838094D01*
X120251357Y-120838094D02*
X120203738Y-120790475D01*
X120203738Y-120790475D02*
X120156119Y-120695237D01*
X120775166Y-119933332D02*
X120775166Y-119171428D01*
X103410880Y-117092857D02*
X103458500Y-117140476D01*
X103458500Y-117140476D02*
X103506119Y-117283333D01*
X103506119Y-117283333D02*
X103506119Y-117378571D01*
X103506119Y-117378571D02*
X103458500Y-117521428D01*
X103458500Y-117521428D02*
X103363261Y-117616666D01*
X103363261Y-117616666D02*
X103268023Y-117664285D01*
X103268023Y-117664285D02*
X103077547Y-117711904D01*
X103077547Y-117711904D02*
X102934690Y-117711904D01*
X102934690Y-117711904D02*
X102744214Y-117664285D01*
X102744214Y-117664285D02*
X102648976Y-117616666D01*
X102648976Y-117616666D02*
X102553738Y-117521428D01*
X102553738Y-117521428D02*
X102506119Y-117378571D01*
X102506119Y-117378571D02*
X102506119Y-117283333D01*
X102506119Y-117283333D02*
X102553738Y-117140476D01*
X102553738Y-117140476D02*
X102601357Y-117092857D01*
X103506119Y-116140476D02*
X103506119Y-116711904D01*
X103506119Y-116426190D02*
X102506119Y-116426190D01*
X102506119Y-116426190D02*
X102648976Y-116521428D01*
X102648976Y-116521428D02*
X102744214Y-116616666D01*
X102744214Y-116616666D02*
X102791833Y-116711904D01*
X103506119Y-115188095D02*
X103506119Y-115759523D01*
X103506119Y-115473809D02*
X102506119Y-115473809D01*
X102506119Y-115473809D02*
X102648976Y-115569047D01*
X102648976Y-115569047D02*
X102744214Y-115664285D01*
X102744214Y-115664285D02*
X102791833Y-115759523D01*
X118656119Y-117628570D02*
X117656119Y-117628570D01*
X117656119Y-117628570D02*
X118370404Y-117295237D01*
X118370404Y-117295237D02*
X117656119Y-116961904D01*
X117656119Y-116961904D02*
X118656119Y-116961904D01*
X118656119Y-115961904D02*
X118656119Y-116533332D01*
X118656119Y-116247618D02*
X117656119Y-116247618D01*
X117656119Y-116247618D02*
X117798976Y-116342856D01*
X117798976Y-116342856D02*
X117894214Y-116438094D01*
X117894214Y-116438094D02*
X117941833Y-116533332D01*
X118275166Y-115533332D02*
X118275166Y-114771428D01*
X118656119Y-115152380D02*
X117894214Y-115152380D01*
X100760880Y-120766666D02*
X100808500Y-120814285D01*
X100808500Y-120814285D02*
X100856119Y-120957142D01*
X100856119Y-120957142D02*
X100856119Y-121052380D01*
X100856119Y-121052380D02*
X100808500Y-121195237D01*
X100808500Y-121195237D02*
X100713261Y-121290475D01*
X100713261Y-121290475D02*
X100618023Y-121338094D01*
X100618023Y-121338094D02*
X100427547Y-121385713D01*
X100427547Y-121385713D02*
X100284690Y-121385713D01*
X100284690Y-121385713D02*
X100094214Y-121338094D01*
X100094214Y-121338094D02*
X99998976Y-121290475D01*
X99998976Y-121290475D02*
X99903738Y-121195237D01*
X99903738Y-121195237D02*
X99856119Y-121052380D01*
X99856119Y-121052380D02*
X99856119Y-120957142D01*
X99856119Y-120957142D02*
X99903738Y-120814285D01*
X99903738Y-120814285D02*
X99951357Y-120766666D01*
X100284690Y-120195237D02*
X100237071Y-120290475D01*
X100237071Y-120290475D02*
X100189452Y-120338094D01*
X100189452Y-120338094D02*
X100094214Y-120385713D01*
X100094214Y-120385713D02*
X100046595Y-120385713D01*
X100046595Y-120385713D02*
X99951357Y-120338094D01*
X99951357Y-120338094D02*
X99903738Y-120290475D01*
X99903738Y-120290475D02*
X99856119Y-120195237D01*
X99856119Y-120195237D02*
X99856119Y-120004761D01*
X99856119Y-120004761D02*
X99903738Y-119909523D01*
X99903738Y-119909523D02*
X99951357Y-119861904D01*
X99951357Y-119861904D02*
X100046595Y-119814285D01*
X100046595Y-119814285D02*
X100094214Y-119814285D01*
X100094214Y-119814285D02*
X100189452Y-119861904D01*
X100189452Y-119861904D02*
X100237071Y-119909523D01*
X100237071Y-119909523D02*
X100284690Y-120004761D01*
X100284690Y-120004761D02*
X100284690Y-120195237D01*
X100284690Y-120195237D02*
X100332309Y-120290475D01*
X100332309Y-120290475D02*
X100379928Y-120338094D01*
X100379928Y-120338094D02*
X100475166Y-120385713D01*
X100475166Y-120385713D02*
X100665642Y-120385713D01*
X100665642Y-120385713D02*
X100760880Y-120338094D01*
X100760880Y-120338094D02*
X100808500Y-120290475D01*
X100808500Y-120290475D02*
X100856119Y-120195237D01*
X100856119Y-120195237D02*
X100856119Y-120004761D01*
X100856119Y-120004761D02*
X100808500Y-119909523D01*
X100808500Y-119909523D02*
X100760880Y-119861904D01*
X100760880Y-119861904D02*
X100665642Y-119814285D01*
X100665642Y-119814285D02*
X100475166Y-119814285D01*
X100475166Y-119814285D02*
X100379928Y-119861904D01*
X100379928Y-119861904D02*
X100332309Y-119909523D01*
X100332309Y-119909523D02*
X100284690Y-120004761D01*
X108560880Y-117042857D02*
X108608500Y-117090476D01*
X108608500Y-117090476D02*
X108656119Y-117233333D01*
X108656119Y-117233333D02*
X108656119Y-117328571D01*
X108656119Y-117328571D02*
X108608500Y-117471428D01*
X108608500Y-117471428D02*
X108513261Y-117566666D01*
X108513261Y-117566666D02*
X108418023Y-117614285D01*
X108418023Y-117614285D02*
X108227547Y-117661904D01*
X108227547Y-117661904D02*
X108084690Y-117661904D01*
X108084690Y-117661904D02*
X107894214Y-117614285D01*
X107894214Y-117614285D02*
X107798976Y-117566666D01*
X107798976Y-117566666D02*
X107703738Y-117471428D01*
X107703738Y-117471428D02*
X107656119Y-117328571D01*
X107656119Y-117328571D02*
X107656119Y-117233333D01*
X107656119Y-117233333D02*
X107703738Y-117090476D01*
X107703738Y-117090476D02*
X107751357Y-117042857D01*
X108656119Y-116090476D02*
X108656119Y-116661904D01*
X108656119Y-116376190D02*
X107656119Y-116376190D01*
X107656119Y-116376190D02*
X107798976Y-116471428D01*
X107798976Y-116471428D02*
X107894214Y-116566666D01*
X107894214Y-116566666D02*
X107941833Y-116661904D01*
X107656119Y-115185714D02*
X107656119Y-115661904D01*
X107656119Y-115661904D02*
X108132309Y-115709523D01*
X108132309Y-115709523D02*
X108084690Y-115661904D01*
X108084690Y-115661904D02*
X108037071Y-115566666D01*
X108037071Y-115566666D02*
X108037071Y-115328571D01*
X108037071Y-115328571D02*
X108084690Y-115233333D01*
X108084690Y-115233333D02*
X108132309Y-115185714D01*
X108132309Y-115185714D02*
X108227547Y-115138095D01*
X108227547Y-115138095D02*
X108465642Y-115138095D01*
X108465642Y-115138095D02*
X108560880Y-115185714D01*
X108560880Y-115185714D02*
X108608500Y-115233333D01*
X108608500Y-115233333D02*
X108656119Y-115328571D01*
X108656119Y-115328571D02*
X108656119Y-115566666D01*
X108656119Y-115566666D02*
X108608500Y-115661904D01*
X108608500Y-115661904D02*
X108560880Y-115709523D01*
X98360880Y-116466666D02*
X98408500Y-116514285D01*
X98408500Y-116514285D02*
X98456119Y-116657142D01*
X98456119Y-116657142D02*
X98456119Y-116752380D01*
X98456119Y-116752380D02*
X98408500Y-116895237D01*
X98408500Y-116895237D02*
X98313261Y-116990475D01*
X98313261Y-116990475D02*
X98218023Y-117038094D01*
X98218023Y-117038094D02*
X98027547Y-117085713D01*
X98027547Y-117085713D02*
X97884690Y-117085713D01*
X97884690Y-117085713D02*
X97694214Y-117038094D01*
X97694214Y-117038094D02*
X97598976Y-116990475D01*
X97598976Y-116990475D02*
X97503738Y-116895237D01*
X97503738Y-116895237D02*
X97456119Y-116752380D01*
X97456119Y-116752380D02*
X97456119Y-116657142D01*
X97456119Y-116657142D02*
X97503738Y-116514285D01*
X97503738Y-116514285D02*
X97551357Y-116466666D01*
X97456119Y-116133332D02*
X97456119Y-115466666D01*
X97456119Y-115466666D02*
X98456119Y-115895237D01*
X108360880Y-121842857D02*
X108408500Y-121890476D01*
X108408500Y-121890476D02*
X108456119Y-122033333D01*
X108456119Y-122033333D02*
X108456119Y-122128571D01*
X108456119Y-122128571D02*
X108408500Y-122271428D01*
X108408500Y-122271428D02*
X108313261Y-122366666D01*
X108313261Y-122366666D02*
X108218023Y-122414285D01*
X108218023Y-122414285D02*
X108027547Y-122461904D01*
X108027547Y-122461904D02*
X107884690Y-122461904D01*
X107884690Y-122461904D02*
X107694214Y-122414285D01*
X107694214Y-122414285D02*
X107598976Y-122366666D01*
X107598976Y-122366666D02*
X107503738Y-122271428D01*
X107503738Y-122271428D02*
X107456119Y-122128571D01*
X107456119Y-122128571D02*
X107456119Y-122033333D01*
X107456119Y-122033333D02*
X107503738Y-121890476D01*
X107503738Y-121890476D02*
X107551357Y-121842857D01*
X108456119Y-120890476D02*
X108456119Y-121461904D01*
X108456119Y-121176190D02*
X107456119Y-121176190D01*
X107456119Y-121176190D02*
X107598976Y-121271428D01*
X107598976Y-121271428D02*
X107694214Y-121366666D01*
X107694214Y-121366666D02*
X107741833Y-121461904D01*
X107789452Y-120033333D02*
X108456119Y-120033333D01*
X107408500Y-120271428D02*
X108122785Y-120509523D01*
X108122785Y-120509523D02*
X108122785Y-119890476D01*
X115960880Y-121242857D02*
X116008500Y-121290476D01*
X116008500Y-121290476D02*
X116056119Y-121433333D01*
X116056119Y-121433333D02*
X116056119Y-121528571D01*
X116056119Y-121528571D02*
X116008500Y-121671428D01*
X116008500Y-121671428D02*
X115913261Y-121766666D01*
X115913261Y-121766666D02*
X115818023Y-121814285D01*
X115818023Y-121814285D02*
X115627547Y-121861904D01*
X115627547Y-121861904D02*
X115484690Y-121861904D01*
X115484690Y-121861904D02*
X115294214Y-121814285D01*
X115294214Y-121814285D02*
X115198976Y-121766666D01*
X115198976Y-121766666D02*
X115103738Y-121671428D01*
X115103738Y-121671428D02*
X115056119Y-121528571D01*
X115056119Y-121528571D02*
X115056119Y-121433333D01*
X115056119Y-121433333D02*
X115103738Y-121290476D01*
X115103738Y-121290476D02*
X115151357Y-121242857D01*
X115151357Y-120861904D02*
X115103738Y-120814285D01*
X115103738Y-120814285D02*
X115056119Y-120719047D01*
X115056119Y-120719047D02*
X115056119Y-120480952D01*
X115056119Y-120480952D02*
X115103738Y-120385714D01*
X115103738Y-120385714D02*
X115151357Y-120338095D01*
X115151357Y-120338095D02*
X115246595Y-120290476D01*
X115246595Y-120290476D02*
X115341833Y-120290476D01*
X115341833Y-120290476D02*
X115484690Y-120338095D01*
X115484690Y-120338095D02*
X116056119Y-120909523D01*
X116056119Y-120909523D02*
X116056119Y-120290476D01*
X115056119Y-119671428D02*
X115056119Y-119576190D01*
X115056119Y-119576190D02*
X115103738Y-119480952D01*
X115103738Y-119480952D02*
X115151357Y-119433333D01*
X115151357Y-119433333D02*
X115246595Y-119385714D01*
X115246595Y-119385714D02*
X115437071Y-119338095D01*
X115437071Y-119338095D02*
X115675166Y-119338095D01*
X115675166Y-119338095D02*
X115865642Y-119385714D01*
X115865642Y-119385714D02*
X115960880Y-119433333D01*
X115960880Y-119433333D02*
X116008500Y-119480952D01*
X116008500Y-119480952D02*
X116056119Y-119576190D01*
X116056119Y-119576190D02*
X116056119Y-119671428D01*
X116056119Y-119671428D02*
X116008500Y-119766666D01*
X116008500Y-119766666D02*
X115960880Y-119814285D01*
X115960880Y-119814285D02*
X115865642Y-119861904D01*
X115865642Y-119861904D02*
X115675166Y-119909523D01*
X115675166Y-119909523D02*
X115437071Y-119909523D01*
X115437071Y-119909523D02*
X115246595Y-119861904D01*
X115246595Y-119861904D02*
X115151357Y-119814285D01*
X115151357Y-119814285D02*
X115103738Y-119766666D01*
X115103738Y-119766666D02*
X115056119Y-119671428D01*
X106010880Y-116842857D02*
X106058500Y-116890476D01*
X106058500Y-116890476D02*
X106106119Y-117033333D01*
X106106119Y-117033333D02*
X106106119Y-117128571D01*
X106106119Y-117128571D02*
X106058500Y-117271428D01*
X106058500Y-117271428D02*
X105963261Y-117366666D01*
X105963261Y-117366666D02*
X105868023Y-117414285D01*
X105868023Y-117414285D02*
X105677547Y-117461904D01*
X105677547Y-117461904D02*
X105534690Y-117461904D01*
X105534690Y-117461904D02*
X105344214Y-117414285D01*
X105344214Y-117414285D02*
X105248976Y-117366666D01*
X105248976Y-117366666D02*
X105153738Y-117271428D01*
X105153738Y-117271428D02*
X105106119Y-117128571D01*
X105106119Y-117128571D02*
X105106119Y-117033333D01*
X105106119Y-117033333D02*
X105153738Y-116890476D01*
X105153738Y-116890476D02*
X105201357Y-116842857D01*
X106106119Y-115890476D02*
X106106119Y-116461904D01*
X106106119Y-116176190D02*
X105106119Y-116176190D01*
X105106119Y-116176190D02*
X105248976Y-116271428D01*
X105248976Y-116271428D02*
X105344214Y-116366666D01*
X105344214Y-116366666D02*
X105391833Y-116461904D01*
X105106119Y-115557142D02*
X105106119Y-114938095D01*
X105106119Y-114938095D02*
X105487071Y-115271428D01*
X105487071Y-115271428D02*
X105487071Y-115128571D01*
X105487071Y-115128571D02*
X105534690Y-115033333D01*
X105534690Y-115033333D02*
X105582309Y-114985714D01*
X105582309Y-114985714D02*
X105677547Y-114938095D01*
X105677547Y-114938095D02*
X105915642Y-114938095D01*
X105915642Y-114938095D02*
X106010880Y-114985714D01*
X106010880Y-114985714D02*
X106058500Y-115033333D01*
X106058500Y-115033333D02*
X106106119Y-115128571D01*
X106106119Y-115128571D02*
X106106119Y-115414285D01*
X106106119Y-115414285D02*
X106058500Y-115509523D01*
X106058500Y-115509523D02*
X106010880Y-115557142D01*
X95860880Y-116466666D02*
X95908500Y-116514285D01*
X95908500Y-116514285D02*
X95956119Y-116657142D01*
X95956119Y-116657142D02*
X95956119Y-116752380D01*
X95956119Y-116752380D02*
X95908500Y-116895237D01*
X95908500Y-116895237D02*
X95813261Y-116990475D01*
X95813261Y-116990475D02*
X95718023Y-117038094D01*
X95718023Y-117038094D02*
X95527547Y-117085713D01*
X95527547Y-117085713D02*
X95384690Y-117085713D01*
X95384690Y-117085713D02*
X95194214Y-117038094D01*
X95194214Y-117038094D02*
X95098976Y-116990475D01*
X95098976Y-116990475D02*
X95003738Y-116895237D01*
X95003738Y-116895237D02*
X94956119Y-116752380D01*
X94956119Y-116752380D02*
X94956119Y-116657142D01*
X94956119Y-116657142D02*
X95003738Y-116514285D01*
X95003738Y-116514285D02*
X95051357Y-116466666D01*
X94956119Y-115561904D02*
X94956119Y-116038094D01*
X94956119Y-116038094D02*
X95432309Y-116085713D01*
X95432309Y-116085713D02*
X95384690Y-116038094D01*
X95384690Y-116038094D02*
X95337071Y-115942856D01*
X95337071Y-115942856D02*
X95337071Y-115704761D01*
X95337071Y-115704761D02*
X95384690Y-115609523D01*
X95384690Y-115609523D02*
X95432309Y-115561904D01*
X95432309Y-115561904D02*
X95527547Y-115514285D01*
X95527547Y-115514285D02*
X95765642Y-115514285D01*
X95765642Y-115514285D02*
X95860880Y-115561904D01*
X95860880Y-115561904D02*
X95908500Y-115609523D01*
X95908500Y-115609523D02*
X95956119Y-115704761D01*
X95956119Y-115704761D02*
X95956119Y-115942856D01*
X95956119Y-115942856D02*
X95908500Y-116038094D01*
X95908500Y-116038094D02*
X95860880Y-116085713D01*
D11*
X97671428Y-88752219D02*
X97671428Y-88085552D01*
X97671428Y-88180790D02*
X97719047Y-88133171D01*
X97719047Y-88133171D02*
X97814285Y-88085552D01*
X97814285Y-88085552D02*
X97957142Y-88085552D01*
X97957142Y-88085552D02*
X98052380Y-88133171D01*
X98052380Y-88133171D02*
X98099999Y-88228409D01*
X98099999Y-88228409D02*
X98099999Y-88752219D01*
X98099999Y-88228409D02*
X98147618Y-88133171D01*
X98147618Y-88133171D02*
X98242856Y-88085552D01*
X98242856Y-88085552D02*
X98385713Y-88085552D01*
X98385713Y-88085552D02*
X98480952Y-88133171D01*
X98480952Y-88133171D02*
X98528571Y-88228409D01*
X98528571Y-88228409D02*
X98528571Y-88752219D01*
X99004761Y-88752219D02*
X99004761Y-88085552D01*
X99004761Y-87752219D02*
X98957142Y-87799838D01*
X98957142Y-87799838D02*
X99004761Y-87847457D01*
X99004761Y-87847457D02*
X99052380Y-87799838D01*
X99052380Y-87799838D02*
X99004761Y-87752219D01*
X99004761Y-87752219D02*
X99004761Y-87847457D01*
X99480951Y-88085552D02*
X99480951Y-88752219D01*
X99480951Y-88180790D02*
X99528570Y-88133171D01*
X99528570Y-88133171D02*
X99623808Y-88085552D01*
X99623808Y-88085552D02*
X99766665Y-88085552D01*
X99766665Y-88085552D02*
X99861903Y-88133171D01*
X99861903Y-88133171D02*
X99909522Y-88228409D01*
X99909522Y-88228409D02*
X99909522Y-88752219D01*
X100385713Y-88752219D02*
X100385713Y-88085552D01*
X100385713Y-87752219D02*
X100338094Y-87799838D01*
X100338094Y-87799838D02*
X100385713Y-87847457D01*
X100385713Y-87847457D02*
X100433332Y-87799838D01*
X100433332Y-87799838D02*
X100385713Y-87752219D01*
X100385713Y-87752219D02*
X100385713Y-87847457D01*
X101480951Y-87752219D02*
X101814284Y-88752219D01*
X101814284Y-88752219D02*
X102147617Y-87752219D01*
X102385713Y-87752219D02*
X103004760Y-87752219D01*
X103004760Y-87752219D02*
X102671427Y-88133171D01*
X102671427Y-88133171D02*
X102814284Y-88133171D01*
X102814284Y-88133171D02*
X102909522Y-88180790D01*
X102909522Y-88180790D02*
X102957141Y-88228409D01*
X102957141Y-88228409D02*
X103004760Y-88323647D01*
X103004760Y-88323647D02*
X103004760Y-88561742D01*
X103004760Y-88561742D02*
X102957141Y-88656980D01*
X102957141Y-88656980D02*
X102909522Y-88704600D01*
X102909522Y-88704600D02*
X102814284Y-88752219D01*
X102814284Y-88752219D02*
X102528570Y-88752219D01*
X102528570Y-88752219D02*
X102433332Y-88704600D01*
X102433332Y-88704600D02*
X102385713Y-88656980D01*
X104195237Y-88752219D02*
X104195237Y-87752219D01*
X104195237Y-87752219D02*
X104576189Y-87752219D01*
X104576189Y-87752219D02*
X104671427Y-87799838D01*
X104671427Y-87799838D02*
X104719046Y-87847457D01*
X104719046Y-87847457D02*
X104766665Y-87942695D01*
X104766665Y-87942695D02*
X104766665Y-88085552D01*
X104766665Y-88085552D02*
X104719046Y-88180790D01*
X104719046Y-88180790D02*
X104671427Y-88228409D01*
X104671427Y-88228409D02*
X104576189Y-88276028D01*
X104576189Y-88276028D02*
X104195237Y-88276028D01*
X105195237Y-88752219D02*
X105195237Y-88085552D01*
X105195237Y-87752219D02*
X105147618Y-87799838D01*
X105147618Y-87799838D02*
X105195237Y-87847457D01*
X105195237Y-87847457D02*
X105242856Y-87799838D01*
X105242856Y-87799838D02*
X105195237Y-87752219D01*
X105195237Y-87752219D02*
X105195237Y-87847457D01*
X105671427Y-88085552D02*
X105671427Y-88752219D01*
X105671427Y-88180790D02*
X105719046Y-88133171D01*
X105719046Y-88133171D02*
X105814284Y-88085552D01*
X105814284Y-88085552D02*
X105957141Y-88085552D01*
X105957141Y-88085552D02*
X106052379Y-88133171D01*
X106052379Y-88133171D02*
X106099998Y-88228409D01*
X106099998Y-88228409D02*
X106099998Y-88752219D01*
X106433332Y-88085552D02*
X106814284Y-88085552D01*
X106576189Y-87752219D02*
X106576189Y-88609361D01*
X106576189Y-88609361D02*
X106623808Y-88704600D01*
X106623808Y-88704600D02*
X106719046Y-88752219D01*
X106719046Y-88752219D02*
X106814284Y-88752219D01*
X107528570Y-88704600D02*
X107433332Y-88752219D01*
X107433332Y-88752219D02*
X107242856Y-88752219D01*
X107242856Y-88752219D02*
X107147618Y-88704600D01*
X107147618Y-88704600D02*
X107099999Y-88609361D01*
X107099999Y-88609361D02*
X107099999Y-88228409D01*
X107099999Y-88228409D02*
X107147618Y-88133171D01*
X107147618Y-88133171D02*
X107242856Y-88085552D01*
X107242856Y-88085552D02*
X107433332Y-88085552D01*
X107433332Y-88085552D02*
X107528570Y-88133171D01*
X107528570Y-88133171D02*
X107576189Y-88228409D01*
X107576189Y-88228409D02*
X107576189Y-88323647D01*
X107576189Y-88323647D02*
X107099999Y-88418885D01*
X107957142Y-88704600D02*
X108052380Y-88752219D01*
X108052380Y-88752219D02*
X108242856Y-88752219D01*
X108242856Y-88752219D02*
X108338094Y-88704600D01*
X108338094Y-88704600D02*
X108385713Y-88609361D01*
X108385713Y-88609361D02*
X108385713Y-88561742D01*
X108385713Y-88561742D02*
X108338094Y-88466504D01*
X108338094Y-88466504D02*
X108242856Y-88418885D01*
X108242856Y-88418885D02*
X108099999Y-88418885D01*
X108099999Y-88418885D02*
X108004761Y-88371266D01*
X108004761Y-88371266D02*
X107957142Y-88276028D01*
X107957142Y-88276028D02*
X107957142Y-88228409D01*
X107957142Y-88228409D02*
X108004761Y-88133171D01*
X108004761Y-88133171D02*
X108099999Y-88085552D01*
X108099999Y-88085552D02*
X108242856Y-88085552D01*
X108242856Y-88085552D02*
X108338094Y-88133171D01*
X108671428Y-88085552D02*
X109052380Y-88085552D01*
X108814285Y-87752219D02*
X108814285Y-88609361D01*
X108814285Y-88609361D02*
X108861904Y-88704600D01*
X108861904Y-88704600D02*
X108957142Y-88752219D01*
X108957142Y-88752219D02*
X109052380Y-88752219D01*
X109766666Y-88704600D02*
X109671428Y-88752219D01*
X109671428Y-88752219D02*
X109480952Y-88752219D01*
X109480952Y-88752219D02*
X109385714Y-88704600D01*
X109385714Y-88704600D02*
X109338095Y-88609361D01*
X109338095Y-88609361D02*
X109338095Y-88228409D01*
X109338095Y-88228409D02*
X109385714Y-88133171D01*
X109385714Y-88133171D02*
X109480952Y-88085552D01*
X109480952Y-88085552D02*
X109671428Y-88085552D01*
X109671428Y-88085552D02*
X109766666Y-88133171D01*
X109766666Y-88133171D02*
X109814285Y-88228409D01*
X109814285Y-88228409D02*
X109814285Y-88323647D01*
X109814285Y-88323647D02*
X109338095Y-88418885D01*
X110242857Y-88752219D02*
X110242857Y-88085552D01*
X110242857Y-88276028D02*
X110290476Y-88180790D01*
X110290476Y-88180790D02*
X110338095Y-88133171D01*
X110338095Y-88133171D02*
X110433333Y-88085552D01*
X110433333Y-88085552D02*
X110528571Y-88085552D01*
X112147619Y-88752219D02*
X111576191Y-88752219D01*
X111861905Y-88752219D02*
X111861905Y-87752219D01*
X111861905Y-87752219D02*
X111766667Y-87895076D01*
X111766667Y-87895076D02*
X111671429Y-87990314D01*
X111671429Y-87990314D02*
X111576191Y-88037933D01*
X112576191Y-88656980D02*
X112623810Y-88704600D01*
X112623810Y-88704600D02*
X112576191Y-88752219D01*
X112576191Y-88752219D02*
X112528572Y-88704600D01*
X112528572Y-88704600D02*
X112576191Y-88656980D01*
X112576191Y-88656980D02*
X112576191Y-88752219D01*
X113576190Y-88752219D02*
X113004762Y-88752219D01*
X113290476Y-88752219D02*
X113290476Y-87752219D01*
X113290476Y-87752219D02*
X113195238Y-87895076D01*
X113195238Y-87895076D02*
X113100000Y-87990314D01*
X113100000Y-87990314D02*
X113004762Y-88037933D01*
D10*
X103360880Y-121442857D02*
X103408500Y-121490476D01*
X103408500Y-121490476D02*
X103456119Y-121633333D01*
X103456119Y-121633333D02*
X103456119Y-121728571D01*
X103456119Y-121728571D02*
X103408500Y-121871428D01*
X103408500Y-121871428D02*
X103313261Y-121966666D01*
X103313261Y-121966666D02*
X103218023Y-122014285D01*
X103218023Y-122014285D02*
X103027547Y-122061904D01*
X103027547Y-122061904D02*
X102884690Y-122061904D01*
X102884690Y-122061904D02*
X102694214Y-122014285D01*
X102694214Y-122014285D02*
X102598976Y-121966666D01*
X102598976Y-121966666D02*
X102503738Y-121871428D01*
X102503738Y-121871428D02*
X102456119Y-121728571D01*
X102456119Y-121728571D02*
X102456119Y-121633333D01*
X102456119Y-121633333D02*
X102503738Y-121490476D01*
X102503738Y-121490476D02*
X102551357Y-121442857D01*
X103456119Y-120490476D02*
X103456119Y-121061904D01*
X103456119Y-120776190D02*
X102456119Y-120776190D01*
X102456119Y-120776190D02*
X102598976Y-120871428D01*
X102598976Y-120871428D02*
X102694214Y-120966666D01*
X102694214Y-120966666D02*
X102741833Y-121061904D01*
X102456119Y-119871428D02*
X102456119Y-119776190D01*
X102456119Y-119776190D02*
X102503738Y-119680952D01*
X102503738Y-119680952D02*
X102551357Y-119633333D01*
X102551357Y-119633333D02*
X102646595Y-119585714D01*
X102646595Y-119585714D02*
X102837071Y-119538095D01*
X102837071Y-119538095D02*
X103075166Y-119538095D01*
X103075166Y-119538095D02*
X103265642Y-119585714D01*
X103265642Y-119585714D02*
X103360880Y-119633333D01*
X103360880Y-119633333D02*
X103408500Y-119680952D01*
X103408500Y-119680952D02*
X103456119Y-119776190D01*
X103456119Y-119776190D02*
X103456119Y-119871428D01*
X103456119Y-119871428D02*
X103408500Y-119966666D01*
X103408500Y-119966666D02*
X103360880Y-120014285D01*
X103360880Y-120014285D02*
X103265642Y-120061904D01*
X103265642Y-120061904D02*
X103075166Y-120109523D01*
X103075166Y-120109523D02*
X102837071Y-120109523D01*
X102837071Y-120109523D02*
X102646595Y-120061904D01*
X102646595Y-120061904D02*
X102551357Y-120014285D01*
X102551357Y-120014285D02*
X102503738Y-119966666D01*
X102503738Y-119966666D02*
X102456119Y-119871428D01*
X93256119Y-121138094D02*
X92256119Y-121138094D01*
X92256119Y-121138094D02*
X92256119Y-120757142D01*
X92256119Y-120757142D02*
X92303738Y-120661904D01*
X92303738Y-120661904D02*
X92351357Y-120614285D01*
X92351357Y-120614285D02*
X92446595Y-120566666D01*
X92446595Y-120566666D02*
X92589452Y-120566666D01*
X92589452Y-120566666D02*
X92684690Y-120614285D01*
X92684690Y-120614285D02*
X92732309Y-120661904D01*
X92732309Y-120661904D02*
X92779928Y-120757142D01*
X92779928Y-120757142D02*
X92779928Y-121138094D01*
X92351357Y-120185713D02*
X92303738Y-120138094D01*
X92303738Y-120138094D02*
X92256119Y-120042856D01*
X92256119Y-120042856D02*
X92256119Y-119804761D01*
X92256119Y-119804761D02*
X92303738Y-119709523D01*
X92303738Y-119709523D02*
X92351357Y-119661904D01*
X92351357Y-119661904D02*
X92446595Y-119614285D01*
X92446595Y-119614285D02*
X92541833Y-119614285D01*
X92541833Y-119614285D02*
X92684690Y-119661904D01*
X92684690Y-119661904D02*
X93256119Y-120233332D01*
X93256119Y-120233332D02*
X93256119Y-119614285D01*
X100860880Y-116566666D02*
X100908500Y-116614285D01*
X100908500Y-116614285D02*
X100956119Y-116757142D01*
X100956119Y-116757142D02*
X100956119Y-116852380D01*
X100956119Y-116852380D02*
X100908500Y-116995237D01*
X100908500Y-116995237D02*
X100813261Y-117090475D01*
X100813261Y-117090475D02*
X100718023Y-117138094D01*
X100718023Y-117138094D02*
X100527547Y-117185713D01*
X100527547Y-117185713D02*
X100384690Y-117185713D01*
X100384690Y-117185713D02*
X100194214Y-117138094D01*
X100194214Y-117138094D02*
X100098976Y-117090475D01*
X100098976Y-117090475D02*
X100003738Y-116995237D01*
X100003738Y-116995237D02*
X99956119Y-116852380D01*
X99956119Y-116852380D02*
X99956119Y-116757142D01*
X99956119Y-116757142D02*
X100003738Y-116614285D01*
X100003738Y-116614285D02*
X100051357Y-116566666D01*
X100956119Y-116090475D02*
X100956119Y-115899999D01*
X100956119Y-115899999D02*
X100908500Y-115804761D01*
X100908500Y-115804761D02*
X100860880Y-115757142D01*
X100860880Y-115757142D02*
X100718023Y-115661904D01*
X100718023Y-115661904D02*
X100527547Y-115614285D01*
X100527547Y-115614285D02*
X100146595Y-115614285D01*
X100146595Y-115614285D02*
X100051357Y-115661904D01*
X100051357Y-115661904D02*
X100003738Y-115709523D01*
X100003738Y-115709523D02*
X99956119Y-115804761D01*
X99956119Y-115804761D02*
X99956119Y-115995237D01*
X99956119Y-115995237D02*
X100003738Y-116090475D01*
X100003738Y-116090475D02*
X100051357Y-116138094D01*
X100051357Y-116138094D02*
X100146595Y-116185713D01*
X100146595Y-116185713D02*
X100384690Y-116185713D01*
X100384690Y-116185713D02*
X100479928Y-116138094D01*
X100479928Y-116138094D02*
X100527547Y-116090475D01*
X100527547Y-116090475D02*
X100575166Y-115995237D01*
X100575166Y-115995237D02*
X100575166Y-115804761D01*
X100575166Y-115804761D02*
X100527547Y-115709523D01*
X100527547Y-115709523D02*
X100479928Y-115661904D01*
X100479928Y-115661904D02*
X100384690Y-115614285D01*
D12*
%TO.C,D101*%
X89100000Y-117725000D02*
G75*
G02*
X88900000Y-117725000I-100000J0D01*
G01*
X88900000Y-117725000D02*
G75*
G02*
X89100000Y-117725000I100000J0D01*
G01*
%TO.C,D25*%
X121990000Y-118925000D02*
G75*
G02*
X121790000Y-118925000I-100000J0D01*
G01*
X121790000Y-118925000D02*
G75*
G02*
X121990000Y-118925000I100000J0D01*
G01*
%TO.C,D24*%
X122100000Y-117825000D02*
G75*
G02*
X121900000Y-117825000I-100000J0D01*
G01*
X121900000Y-117825000D02*
G75*
G02*
X122100000Y-117825000I100000J0D01*
G01*
%TO.C,D23*%
X119490000Y-118925000D02*
G75*
G02*
X119290000Y-118925000I-100000J0D01*
G01*
X119290000Y-118925000D02*
G75*
G02*
X119490000Y-118925000I100000J0D01*
G01*
%TO.C,D22*%
X119550000Y-117825000D02*
G75*
G02*
X119350000Y-117825000I-100000J0D01*
G01*
X119350000Y-117825000D02*
G75*
G02*
X119550000Y-117825000I100000J0D01*
G01*
%TO.C,D21*%
X116990000Y-118925000D02*
G75*
G02*
X116790000Y-118925000I-100000J0D01*
G01*
X116790000Y-118925000D02*
G75*
G02*
X116990000Y-118925000I100000J0D01*
G01*
%TO.C,D20*%
X114390000Y-118925000D02*
G75*
G02*
X114190000Y-118925000I-100000J0D01*
G01*
X114190000Y-118925000D02*
G75*
G02*
X114390000Y-118925000I100000J0D01*
G01*
%TO.C,D19*%
X114600000Y-117825000D02*
G75*
G02*
X114400000Y-117825000I-100000J0D01*
G01*
X114400000Y-117825000D02*
G75*
G02*
X114600000Y-117825000I100000J0D01*
G01*
%TO.C,D18*%
X111790000Y-118925000D02*
G75*
G02*
X111590000Y-118925000I-100000J0D01*
G01*
X111590000Y-118925000D02*
G75*
G02*
X111790000Y-118925000I100000J0D01*
G01*
%TO.C,D17*%
X112050000Y-117825000D02*
G75*
G02*
X111850000Y-117825000I-100000J0D01*
G01*
X111850000Y-117825000D02*
G75*
G02*
X112050000Y-117825000I100000J0D01*
G01*
%TO.C,D16*%
X109190000Y-118925000D02*
G75*
G02*
X108990000Y-118925000I-100000J0D01*
G01*
X108990000Y-118925000D02*
G75*
G02*
X109190000Y-118925000I100000J0D01*
G01*
%TO.C,D15*%
X109550000Y-117825000D02*
G75*
G02*
X109350000Y-117825000I-100000J0D01*
G01*
X109350000Y-117825000D02*
G75*
G02*
X109550000Y-117825000I100000J0D01*
G01*
%TO.C,D14*%
X106780000Y-118925000D02*
G75*
G02*
X106580000Y-118925000I-100000J0D01*
G01*
X106580000Y-118925000D02*
G75*
G02*
X106780000Y-118925000I100000J0D01*
G01*
%TO.C,D13*%
X107000000Y-117825000D02*
G75*
G02*
X106800000Y-117825000I-100000J0D01*
G01*
X106800000Y-117825000D02*
G75*
G02*
X107000000Y-117825000I100000J0D01*
G01*
%TO.C,D12*%
X104220000Y-118925000D02*
G75*
G02*
X104020000Y-118925000I-100000J0D01*
G01*
X104020000Y-118925000D02*
G75*
G02*
X104220000Y-118925000I100000J0D01*
G01*
%TO.C,D11*%
X104400000Y-117825000D02*
G75*
G02*
X104200000Y-117825000I-100000J0D01*
G01*
X104200000Y-117825000D02*
G75*
G02*
X104400000Y-117825000I100000J0D01*
G01*
%TO.C,D10*%
X101790000Y-118900000D02*
G75*
G02*
X101590000Y-118900000I-100000J0D01*
G01*
X101590000Y-118900000D02*
G75*
G02*
X101790000Y-118900000I100000J0D01*
G01*
%TO.C,D9*%
X101800000Y-117825000D02*
G75*
G02*
X101600000Y-117825000I-100000J0D01*
G01*
X101600000Y-117825000D02*
G75*
G02*
X101800000Y-117825000I100000J0D01*
G01*
%TO.C,D8*%
X99090000Y-118925000D02*
G75*
G02*
X98890000Y-118925000I-100000J0D01*
G01*
X98890000Y-118925000D02*
G75*
G02*
X99090000Y-118925000I100000J0D01*
G01*
%TO.C,D7*%
X99300000Y-117825000D02*
G75*
G02*
X99100000Y-117825000I-100000J0D01*
G01*
X99100000Y-117825000D02*
G75*
G02*
X99300000Y-117825000I100000J0D01*
G01*
%TO.C,D6*%
X96590000Y-118925000D02*
G75*
G02*
X96390000Y-118925000I-100000J0D01*
G01*
X96390000Y-118925000D02*
G75*
G02*
X96590000Y-118925000I100000J0D01*
G01*
%TO.C,D5*%
X96800000Y-117825000D02*
G75*
G02*
X96600000Y-117825000I-100000J0D01*
G01*
X96600000Y-117825000D02*
G75*
G02*
X96800000Y-117825000I100000J0D01*
G01*
%TO.C,D4*%
X94190000Y-118900000D02*
G75*
G02*
X93990000Y-118900000I-100000J0D01*
G01*
X93990000Y-118900000D02*
G75*
G02*
X94190000Y-118900000I100000J0D01*
G01*
%TO.C,D3*%
X94200000Y-117825000D02*
G75*
G02*
X94000000Y-117825000I-100000J0D01*
G01*
X94000000Y-117825000D02*
G75*
G02*
X94200000Y-117825000I100000J0D01*
G01*
%TO.C,D2*%
X91600000Y-118925000D02*
G75*
G02*
X91400000Y-118925000I-100000J0D01*
G01*
X91400000Y-118925000D02*
G75*
G02*
X91600000Y-118925000I100000J0D01*
G01*
%TO.C,D1*%
X91600000Y-117825000D02*
G75*
G02*
X91400000Y-117825000I-100000J0D01*
G01*
X91400000Y-117825000D02*
G75*
G02*
X91600000Y-117825000I100000J0D01*
G01*
D13*
%TO.C,R19*%
X115022500Y-111370276D02*
X115022500Y-111879724D01*
X113977500Y-111370276D02*
X113977500Y-111879724D01*
%TO.C,R23*%
X118847500Y-124912776D02*
X118847500Y-125422224D01*
X119892500Y-124912776D02*
X119892500Y-125422224D01*
%TO.C,R6*%
X97092500Y-124832776D02*
X97092500Y-125342224D01*
X96047500Y-124832776D02*
X96047500Y-125342224D01*
%TO.C,R15*%
X108877500Y-111370276D02*
X108877500Y-111879724D01*
X109922500Y-111370276D02*
X109922500Y-111879724D01*
%TO.C,R21*%
X117472500Y-124912776D02*
X117472500Y-125422224D01*
X116427500Y-124912776D02*
X116427500Y-125422224D01*
%TO.C,R101*%
X88437500Y-111425276D02*
X88437500Y-111934724D01*
X89482500Y-111425276D02*
X89482500Y-111934724D01*
%TO.C,R9*%
X102222500Y-111370276D02*
X102222500Y-111879724D01*
X101177500Y-111370276D02*
X101177500Y-111879724D01*
%TO.C,R17*%
X111477500Y-111370276D02*
X111477500Y-111879724D01*
X112522500Y-111370276D02*
X112522500Y-111879724D01*
%TO.C,R20*%
X113847500Y-124867776D02*
X113847500Y-125377224D01*
X114892500Y-124867776D02*
X114892500Y-125377224D01*
%TO.C,R22*%
X118977500Y-111370276D02*
X118977500Y-111879724D01*
X120022500Y-111370276D02*
X120022500Y-111879724D01*
%TO.C,R8*%
X99622500Y-124832776D02*
X99622500Y-125342224D01*
X98577500Y-124832776D02*
X98577500Y-125342224D01*
%TO.C,R11*%
X103777500Y-111370276D02*
X103777500Y-111879724D01*
X104822500Y-111370276D02*
X104822500Y-111879724D01*
%TO.C,R7*%
X99722500Y-111370276D02*
X99722500Y-111879724D01*
X98677500Y-111370276D02*
X98677500Y-111879724D01*
%TO.C,R18*%
X112322500Y-124917776D02*
X112322500Y-125427224D01*
X111277500Y-124917776D02*
X111277500Y-125427224D01*
%TO.C,R4*%
X93467500Y-124832776D02*
X93467500Y-125342224D01*
X94512500Y-124832776D02*
X94512500Y-125342224D01*
%TO.C,R24*%
X121577500Y-111370276D02*
X121577500Y-111879724D01*
X122622500Y-111370276D02*
X122622500Y-111879724D01*
%TO.C,R1*%
X90927500Y-111370276D02*
X90927500Y-111879724D01*
X91972500Y-111370276D02*
X91972500Y-111879724D01*
%TO.C,R3*%
X94622500Y-111370276D02*
X94622500Y-111879724D01*
X93577500Y-111370276D02*
X93577500Y-111879724D01*
%TO.C,R12*%
X104582500Y-124882776D02*
X104582500Y-125392224D01*
X103537500Y-124882776D02*
X103537500Y-125392224D01*
%TO.C,R5*%
X97222500Y-111370276D02*
X97222500Y-111879724D01*
X96177500Y-111370276D02*
X96177500Y-111879724D01*
%TO.C,R2*%
X92022500Y-124832776D02*
X92022500Y-125342224D01*
X90977500Y-124832776D02*
X90977500Y-125342224D01*
%TO.C,R14*%
X107242500Y-124962776D02*
X107242500Y-125472224D01*
X106197500Y-124962776D02*
X106197500Y-125472224D01*
%TO.C,R16*%
X108777500Y-124962776D02*
X108777500Y-125472224D01*
X109822500Y-124962776D02*
X109822500Y-125472224D01*
%TO.C,R25*%
X122492500Y-124942776D02*
X122492500Y-125452224D01*
X121447500Y-124942776D02*
X121447500Y-125452224D01*
%TO.C,R13*%
X107472500Y-111370276D02*
X107472500Y-111879724D01*
X106427500Y-111370276D02*
X106427500Y-111879724D01*
%TO.C,R10*%
X102172500Y-124862776D02*
X102172500Y-125372224D01*
X101127500Y-124862776D02*
X101127500Y-125372224D01*
%TD*%
%LPC*%
D14*
%TO.C,J1*%
X88940000Y-92020000D03*
X88940000Y-94560000D03*
X91480000Y-92020000D03*
X91480000Y-94560000D03*
X94020000Y-92020000D03*
X94020000Y-94560000D03*
X96560000Y-92020000D03*
X96560000Y-94560000D03*
X99100000Y-92020000D03*
X99100000Y-94560000D03*
X101640000Y-92020000D03*
X101640000Y-94560000D03*
X104180000Y-92020000D03*
X104180000Y-94560000D03*
X106720000Y-92020000D03*
X106720000Y-94560000D03*
X109260000Y-92020000D03*
X109260000Y-94560000D03*
X111800000Y-92020000D03*
X111800000Y-94560000D03*
X114340000Y-92020000D03*
X114340000Y-94560000D03*
X116880000Y-92020000D03*
X116880000Y-94560000D03*
X119420000Y-92020000D03*
X119420000Y-94560000D03*
X121960000Y-92020000D03*
X121960000Y-94560000D03*
X124500000Y-92020000D03*
X124500000Y-94560000D03*
%TD*%
D15*
%TO.C,D101*%
X89000000Y-116900000D03*
X89000000Y-115150000D03*
%TD*%
D16*
%TO.C,D25*%
X121890000Y-119750000D03*
X121890000Y-121500000D03*
%TD*%
D15*
%TO.C,D24*%
X122000000Y-117000000D03*
X122000000Y-115250000D03*
%TD*%
D16*
%TO.C,D23*%
X119390000Y-119750000D03*
X119390000Y-121500000D03*
%TD*%
D15*
%TO.C,D22*%
X119450000Y-117000000D03*
X119450000Y-115250000D03*
%TD*%
D16*
%TO.C,D21*%
X116890000Y-119750000D03*
X116890000Y-121500000D03*
%TD*%
%TO.C,D20*%
X114290000Y-119750000D03*
X114290000Y-121500000D03*
%TD*%
D15*
%TO.C,D19*%
X114500000Y-117000000D03*
X114500000Y-115250000D03*
%TD*%
D16*
%TO.C,D18*%
X111690000Y-119750000D03*
X111690000Y-121500000D03*
%TD*%
D15*
%TO.C,D17*%
X111950000Y-117000000D03*
X111950000Y-115250000D03*
%TD*%
D16*
%TO.C,D16*%
X109090000Y-119750000D03*
X109090000Y-121500000D03*
%TD*%
D15*
%TO.C,D15*%
X109450000Y-117000000D03*
X109450000Y-115250000D03*
%TD*%
D16*
%TO.C,D14*%
X106680000Y-119750000D03*
X106680000Y-121500000D03*
%TD*%
D15*
%TO.C,D13*%
X106900000Y-117000000D03*
X106900000Y-115250000D03*
%TD*%
D16*
%TO.C,D12*%
X104120000Y-119750000D03*
X104120000Y-121500000D03*
%TD*%
D15*
%TO.C,D11*%
X104300000Y-117000000D03*
X104300000Y-115250000D03*
%TD*%
D16*
%TO.C,D10*%
X101690000Y-119725000D03*
X101690000Y-121475000D03*
%TD*%
D15*
%TO.C,D9*%
X101700000Y-117000000D03*
X101700000Y-115250000D03*
%TD*%
D16*
%TO.C,D8*%
X98990000Y-119750000D03*
X98990000Y-121500000D03*
%TD*%
D15*
%TO.C,D7*%
X99200000Y-117000000D03*
X99200000Y-115250000D03*
%TD*%
D16*
%TO.C,D6*%
X96490000Y-119750000D03*
X96490000Y-121500000D03*
%TD*%
D15*
%TO.C,D5*%
X96700000Y-117000000D03*
X96700000Y-115250000D03*
%TD*%
D16*
%TO.C,D4*%
X94090000Y-119725000D03*
X94090000Y-121475000D03*
%TD*%
D15*
%TO.C,D3*%
X94100000Y-117000000D03*
X94100000Y-115250000D03*
%TD*%
D16*
%TO.C,D2*%
X91500000Y-119750000D03*
X91500000Y-121500000D03*
%TD*%
D15*
%TO.C,D1*%
X91500000Y-117000000D03*
X91500000Y-115250000D03*
%TD*%
D14*
%TO.C,H2*%
X87500000Y-124500000D03*
%TD*%
%TO.C,H1*%
X125250000Y-124250000D03*
%TD*%
D17*
%TO.C,R19*%
X114500000Y-110712500D03*
X114500000Y-112537500D03*
%TD*%
%TO.C,R23*%
X119370000Y-124255000D03*
X119370000Y-126080000D03*
%TD*%
%TO.C,R6*%
X96570000Y-124175000D03*
X96570000Y-126000000D03*
%TD*%
%TO.C,R15*%
X109400000Y-110712500D03*
X109400000Y-112537500D03*
%TD*%
%TO.C,R21*%
X116950000Y-124255000D03*
X116950000Y-126080000D03*
%TD*%
%TO.C,R101*%
X88960000Y-110767500D03*
X88960000Y-112592500D03*
%TD*%
%TO.C,R9*%
X101700000Y-110712500D03*
X101700000Y-112537500D03*
%TD*%
%TO.C,R17*%
X112000000Y-110712500D03*
X112000000Y-112537500D03*
%TD*%
%TO.C,R20*%
X114370000Y-124210000D03*
X114370000Y-126035000D03*
%TD*%
%TO.C,R22*%
X119500000Y-110712500D03*
X119500000Y-112537500D03*
%TD*%
%TO.C,R8*%
X99100000Y-124175000D03*
X99100000Y-126000000D03*
%TD*%
%TO.C,R11*%
X104300000Y-110712500D03*
X104300000Y-112537500D03*
%TD*%
%TO.C,R7*%
X99200000Y-110712500D03*
X99200000Y-112537500D03*
%TD*%
%TO.C,R18*%
X111800000Y-124260000D03*
X111800000Y-126085000D03*
%TD*%
%TO.C,R4*%
X93990000Y-124175000D03*
X93990000Y-126000000D03*
%TD*%
%TO.C,R24*%
X122100000Y-110712500D03*
X122100000Y-112537500D03*
%TD*%
%TO.C,R1*%
X91450000Y-110712500D03*
X91450000Y-112537500D03*
%TD*%
%TO.C,R3*%
X94100000Y-110712500D03*
X94100000Y-112537500D03*
%TD*%
%TO.C,R12*%
X104060000Y-124225000D03*
X104060000Y-126050000D03*
%TD*%
%TO.C,R5*%
X96700000Y-110712500D03*
X96700000Y-112537500D03*
%TD*%
%TO.C,R2*%
X91500000Y-124175000D03*
X91500000Y-126000000D03*
%TD*%
%TO.C,R14*%
X106720000Y-124305000D03*
X106720000Y-126130000D03*
%TD*%
%TO.C,R16*%
X109300000Y-124305000D03*
X109300000Y-126130000D03*
%TD*%
%TO.C,R25*%
X121970000Y-124285000D03*
X121970000Y-126110000D03*
%TD*%
%TO.C,R13*%
X106950000Y-110712500D03*
X106950000Y-112537500D03*
%TD*%
%TO.C,R10*%
X101650000Y-124205000D03*
X101650000Y-126030000D03*
%TD*%
%LPD*%
M02*
