M48
; DRILL file {KiCad 8.0.9-8.0.9-0~ubuntu22.04.1} date 2025-09-30T16:22:56+0200
; FORMAT={-:-/ absolute / inch / decimal}
; #@! TF.CreationDate,2025-09-30T16:22:56+02:00
; #@! TF.GenerationSoftware,Kicad,Pcbnew,8.0.9-8.0.9-0~ubuntu22.04.1
; #@! TF.FileFunction,Plated,1,2,PTH
FMAT,2
INCH
; #@! TA.AperFunction,Plated,PTH,ViaDrill
T1C0.0157
; #@! TA.AperFunction,Plated,PTH,ComponentDrill
T2C0.0669
%
G90
G05
T1
X3.4252Y-4.6555
X3.4252Y-4.7047
X3.435Y-4.5374
X3.435Y-4.6063
X3.437Y-4.4882
X3.4646Y-4.2913
X3.5433Y-4.4685
X3.5463Y-4.6063
X3.563Y-4.6457
X3.6006Y-4.6752
X3.702Y-4.6506
X3.7598Y-4.626
X3.7992Y-4.6654
X3.8649Y-4.6435
X3.8976Y-4.6654
X3.9567Y-4.6555
X3.9961Y-4.6654
X4.0551Y-4.6555
X4.0945Y-4.6654
X4.1929Y-4.6654
X4.2421Y-4.6654
X4.2913Y-4.6654
X4.3406Y-4.685
X4.3898Y-4.6654
X4.439Y-4.6555
X4.4882Y-4.6654
X4.5571Y-4.6457
X4.6063Y-4.6654
X4.685Y-4.6654
X4.8031Y-4.6654
X4.8524Y-4.7146
X4.8622Y-4.6555
T2
X3.5016Y-3.6228
X3.5016Y-3.7228
X3.6016Y-3.6228
X3.6016Y-3.7228
X3.7016Y-3.6228
X3.7016Y-3.7228
X3.8016Y-3.6228
X3.8016Y-3.7228
X3.9016Y-3.6228
X3.9016Y-3.7228
X4.0016Y-3.6228
X4.0016Y-3.7228
X4.1016Y-3.6228
X4.1016Y-3.7228
X4.2016Y-3.6228
X4.2016Y-3.7228
X4.3016Y-3.6228
X4.3016Y-3.7228
X4.4016Y-3.6228
X4.4016Y-3.7228
X4.5016Y-3.6228
X4.5016Y-3.7228
X4.6016Y-3.6228
X4.6016Y-3.7228
X4.7016Y-3.6228
X4.7016Y-3.7228
X4.8016Y-3.6228
X4.8016Y-3.7228
X4.9016Y-3.6228
X4.9016Y-3.7228
M30
