%TF.GenerationSoftware,KiCad,Pcbnew,8.0.9-8.0.9-0~ubuntu22.04.1*%
%TF.CreationDate,2025-09-30T16:22:56+02:00*%
%TF.ProjectId,Pin_Test,50696e5f-5465-4737-942e-6b696361645f,rev?*%
%TF.SameCoordinates,Original*%
%TF.FileFunction,Copper,L1,Top*%
%TF.FilePolarity,Positive*%
%FSLAX46Y46*%
G04 Gerber Fmt 4.6, Leading zero omitted, Abs format (unit mm)*
G04 Created by KiCad (PCBNEW 8.0.9-8.0.9-0~ubuntu22.04.1) date 2025-09-30 16:22:56*
%MOMM*%
%LPD*%
G01*
G04 APERTURE LIST*
G04 Aperture macros list*
%AMRoundRect*
0 Rectangle with rounded corners*
0 $1 Rounding radius*
0 $2 $3 $4 $5 $6 $7 $8 $9 X,Y pos of 4 corners*
0 Add a 4 corners polygon primitive as box body*
4,1,4,$2,$3,$4,$5,$6,$7,$8,$9,$2,$3,0*
0 Add four circle primitives for the rounded corners*
1,1,$1+$1,$2,$3*
1,1,$1+$1,$4,$5*
1,1,$1+$1,$6,$7*
1,1,$1+$1,$8,$9*
0 Add four rect primitives between the rounded corners*
20,1,$1+$1,$2,$3,$4,$5,0*
20,1,$1+$1,$4,$5,$6,$7,0*
20,1,$1+$1,$6,$7,$8,$9,0*
20,1,$1+$1,$8,$9,$2,$3,0*%
G04 Aperture macros list end*
%TA.AperFunction,ComponentPad*%
%ADD10C,2.200000*%
%TD*%
%TA.AperFunction,SMDPad,CuDef*%
%ADD11RoundRect,0.237500X0.237500X-0.287500X0.237500X0.287500X-0.237500X0.287500X-0.237500X-0.287500X0*%
%TD*%
%TA.AperFunction,SMDPad,CuDef*%
%ADD12RoundRect,0.237500X-0.237500X0.287500X-0.237500X-0.287500X0.237500X-0.287500X0.237500X0.287500X0*%
%TD*%
%TA.AperFunction,SMDPad,CuDef*%
%ADD13RoundRect,0.237500X-0.237500X0.250000X-0.237500X-0.250000X0.237500X-0.250000X0.237500X0.250000X0*%
%TD*%
%TA.AperFunction,ViaPad*%
%ADD14C,0.800000*%
%TD*%
%TA.AperFunction,Conductor*%
%ADD15C,0.150000*%
%TD*%
%TA.AperFunction,Conductor*%
%ADD16C,0.200000*%
%TD*%
G04 APERTURE END LIST*
D10*
%TO.P,J1,1,VCC*%
%TO.N,VCC*%
X88940000Y-92020000D03*
%TO.P,J1,2,GND*%
%TO.N,GND*%
X88940000Y-94560000D03*
%TO.P,J1,3,P1*%
%TO.N,/P1*%
X91480000Y-92020000D03*
%TO.P,J1,4,P0*%
%TO.N,/P0*%
X91480000Y-94560000D03*
%TO.P,J1,5,P3*%
%TO.N,/P3*%
X94020000Y-92020000D03*
%TO.P,J1,6,P2*%
%TO.N,/P2*%
X94020000Y-94560000D03*
%TO.P,J1,7,C5*%
%TO.N,/C5*%
X96560000Y-92020000D03*
%TO.P,J1,8,C4*%
%TO.N,/C4*%
X96560000Y-94560000D03*
%TO.P,J1,9,C7*%
%TO.N,/C7*%
X99100000Y-92020000D03*
%TO.P,J1,10,C6*%
%TO.N,/C6*%
X99100000Y-94560000D03*
%TO.P,J1,11,C9*%
%TO.N,/C9*%
X101640000Y-92020000D03*
%TO.P,J1,12,C8*%
%TO.N,/C8*%
X101640000Y-94560000D03*
%TO.P,J1,13,C11*%
%TO.N,/C11*%
X104180000Y-92020000D03*
%TO.P,J1,14,C10*%
%TO.N,/C10*%
X104180000Y-94560000D03*
%TO.P,J1,15,C13*%
%TO.N,/C13*%
X106720000Y-92020000D03*
%TO.P,J1,16,C12*%
%TO.N,/C12*%
X106720000Y-94560000D03*
%TO.P,J1,17,C15*%
%TO.N,/C15*%
X109260000Y-92020000D03*
%TO.P,J1,18,C14*%
%TO.N,/C14*%
X109260000Y-94560000D03*
%TO.P,J1,19,C17*%
%TO.N,/C17*%
X111800000Y-92020000D03*
%TO.P,J1,20,C16*%
%TO.N,/C16*%
X111800000Y-94560000D03*
%TO.P,J1,21,C19*%
%TO.N,/C19*%
X114340000Y-92020000D03*
%TO.P,J1,22,C18*%
%TO.N,/C18*%
X114340000Y-94560000D03*
%TO.P,J1,23,GND*%
%TO.N,unconnected-(J1-GND-Pad23)*%
X116880000Y-92020000D03*
%TO.P,J1,24,C20*%
%TO.N,/C20*%
X116880000Y-94560000D03*
%TO.P,J1,25,M1+*%
%TO.N,/M1+*%
X119420000Y-92020000D03*
%TO.P,J1,26,M0+*%
%TO.N,/M0+*%
X119420000Y-94560000D03*
%TO.P,J1,27,M1-*%
%TO.N,/M1-*%
X121960000Y-92020000D03*
%TO.P,J1,28,M0-*%
%TO.N,/M0-*%
X121960000Y-94560000D03*
%TO.P,J1,29,GND*%
%TO.N,unconnected-(J1-GND-Pad29)*%
X124500000Y-92020000D03*
%TO.P,J1,30,VM+*%
%TO.N,/VM+*%
X124500000Y-94560000D03*
%TD*%
D11*
%TO.P,D101,1,K*%
%TO.N,GND*%
X89000000Y-116900000D03*
%TO.P,D101,2,A*%
%TO.N,Net-(D101-A)*%
X89000000Y-115150000D03*
%TD*%
D12*
%TO.P,D25,1,K*%
%TO.N,/M0-*%
X121890000Y-119750000D03*
%TO.P,D25,2,A*%
%TO.N,Net-(D25-A)*%
X121890000Y-121500000D03*
%TD*%
D11*
%TO.P,D24,1,K*%
%TO.N,/M1-*%
X122000000Y-117000000D03*
%TO.P,D24,2,A*%
%TO.N,Net-(D24-A)*%
X122000000Y-115250000D03*
%TD*%
D12*
%TO.P,D23,1,K*%
%TO.N,/M0+*%
X119390000Y-119750000D03*
%TO.P,D23,2,A*%
%TO.N,Net-(D23-A)*%
X119390000Y-121500000D03*
%TD*%
D11*
%TO.P,D22,1,K*%
%TO.N,/M1+*%
X119450000Y-117000000D03*
%TO.P,D22,2,A*%
%TO.N,Net-(D22-A)*%
X119450000Y-115250000D03*
%TD*%
D12*
%TO.P,D21,1,K*%
%TO.N,/C20*%
X116890000Y-119750000D03*
%TO.P,D21,2,A*%
%TO.N,Net-(D21-A)*%
X116890000Y-121500000D03*
%TD*%
%TO.P,D20,1,K*%
%TO.N,/C18*%
X114290000Y-119750000D03*
%TO.P,D20,2,A*%
%TO.N,Net-(D20-A)*%
X114290000Y-121500000D03*
%TD*%
D11*
%TO.P,D19,1,K*%
%TO.N,/C19*%
X114500000Y-117000000D03*
%TO.P,D19,2,A*%
%TO.N,Net-(D19-A)*%
X114500000Y-115250000D03*
%TD*%
D12*
%TO.P,D18,1,K*%
%TO.N,/C16*%
X111690000Y-119750000D03*
%TO.P,D18,2,A*%
%TO.N,Net-(D18-A)*%
X111690000Y-121500000D03*
%TD*%
D11*
%TO.P,D17,1,K*%
%TO.N,/C17*%
X111950000Y-117000000D03*
%TO.P,D17,2,A*%
%TO.N,Net-(D17-A)*%
X111950000Y-115250000D03*
%TD*%
D12*
%TO.P,D16,1,K*%
%TO.N,/C14*%
X109090000Y-119750000D03*
%TO.P,D16,2,A*%
%TO.N,Net-(D16-A)*%
X109090000Y-121500000D03*
%TD*%
D11*
%TO.P,D15,1,K*%
%TO.N,/C15*%
X109450000Y-117000000D03*
%TO.P,D15,2,A*%
%TO.N,Net-(D15-A)*%
X109450000Y-115250000D03*
%TD*%
D12*
%TO.P,D14,1,K*%
%TO.N,/C12*%
X106680000Y-119750000D03*
%TO.P,D14,2,A*%
%TO.N,Net-(D14-A)*%
X106680000Y-121500000D03*
%TD*%
D11*
%TO.P,D13,1,K*%
%TO.N,/C13*%
X106900000Y-117000000D03*
%TO.P,D13,2,A*%
%TO.N,Net-(D13-A)*%
X106900000Y-115250000D03*
%TD*%
D12*
%TO.P,D12,1,K*%
%TO.N,/C10*%
X104120000Y-119750000D03*
%TO.P,D12,2,A*%
%TO.N,Net-(D12-A)*%
X104120000Y-121500000D03*
%TD*%
D11*
%TO.P,D11,1,K*%
%TO.N,/C11*%
X104300000Y-117000000D03*
%TO.P,D11,2,A*%
%TO.N,Net-(D11-A)*%
X104300000Y-115250000D03*
%TD*%
D12*
%TO.P,D10,1,K*%
%TO.N,/C8*%
X101690000Y-119725000D03*
%TO.P,D10,2,A*%
%TO.N,Net-(D10-A)*%
X101690000Y-121475000D03*
%TD*%
D11*
%TO.P,D9,1,K*%
%TO.N,/C9*%
X101700000Y-117000000D03*
%TO.P,D9,2,A*%
%TO.N,Net-(D9-A)*%
X101700000Y-115250000D03*
%TD*%
D12*
%TO.P,D8,1,K*%
%TO.N,/C6*%
X98990000Y-119750000D03*
%TO.P,D8,2,A*%
%TO.N,Net-(D8-A)*%
X98990000Y-121500000D03*
%TD*%
D11*
%TO.P,D7,1,K*%
%TO.N,/C7*%
X99200000Y-117000000D03*
%TO.P,D7,2,A*%
%TO.N,Net-(D7-A)*%
X99200000Y-115250000D03*
%TD*%
D12*
%TO.P,D6,1,K*%
%TO.N,/C4*%
X96490000Y-119750000D03*
%TO.P,D6,2,A*%
%TO.N,Net-(D6-A)*%
X96490000Y-121500000D03*
%TD*%
D11*
%TO.P,D5,1,K*%
%TO.N,/C5*%
X96700000Y-117000000D03*
%TO.P,D5,2,A*%
%TO.N,Net-(D5-A)*%
X96700000Y-115250000D03*
%TD*%
D12*
%TO.P,D4,1,K*%
%TO.N,/P2*%
X94090000Y-119725000D03*
%TO.P,D4,2,A*%
%TO.N,Net-(D4-A)*%
X94090000Y-121475000D03*
%TD*%
D11*
%TO.P,D3,1,K*%
%TO.N,/P3*%
X94100000Y-117000000D03*
%TO.P,D3,2,A*%
%TO.N,Net-(D3-A)*%
X94100000Y-115250000D03*
%TD*%
D12*
%TO.P,D2,1,K*%
%TO.N,/P0*%
X91500000Y-119750000D03*
%TO.P,D2,2,A*%
%TO.N,Net-(D2-A)*%
X91500000Y-121500000D03*
%TD*%
D11*
%TO.P,D1,1,K*%
%TO.N,/P1*%
X91500000Y-117000000D03*
%TO.P,D1,2,A*%
%TO.N,Net-(D1-A)*%
X91500000Y-115250000D03*
%TD*%
D13*
%TO.P,R19,1*%
%TO.N,VCC*%
X114500000Y-110712500D03*
%TO.P,R19,2*%
%TO.N,Net-(D19-A)*%
X114500000Y-112537500D03*
%TD*%
%TO.P,R23,1*%
%TO.N,Net-(D23-A)*%
X119370000Y-124255000D03*
%TO.P,R23,2*%
%TO.N,VCC*%
X119370000Y-126080000D03*
%TD*%
%TO.P,R6,1*%
%TO.N,Net-(D6-A)*%
X96570000Y-124175000D03*
%TO.P,R6,2*%
%TO.N,VCC*%
X96570000Y-126000000D03*
%TD*%
%TO.P,R15,1*%
%TO.N,VCC*%
X109400000Y-110712500D03*
%TO.P,R15,2*%
%TO.N,Net-(D15-A)*%
X109400000Y-112537500D03*
%TD*%
%TO.P,R21,1*%
%TO.N,Net-(D21-A)*%
X116950000Y-124255000D03*
%TO.P,R21,2*%
%TO.N,VCC*%
X116950000Y-126080000D03*
%TD*%
%TO.P,R101,1*%
%TO.N,VCC*%
X88960000Y-110767500D03*
%TO.P,R101,2*%
%TO.N,Net-(D101-A)*%
X88960000Y-112592500D03*
%TD*%
%TO.P,R9,1*%
%TO.N,VCC*%
X101700000Y-110712500D03*
%TO.P,R9,2*%
%TO.N,Net-(D9-A)*%
X101700000Y-112537500D03*
%TD*%
%TO.P,R17,1*%
%TO.N,VCC*%
X112000000Y-110712500D03*
%TO.P,R17,2*%
%TO.N,Net-(D17-A)*%
X112000000Y-112537500D03*
%TD*%
%TO.P,R20,1*%
%TO.N,Net-(D20-A)*%
X114370000Y-124210000D03*
%TO.P,R20,2*%
%TO.N,VCC*%
X114370000Y-126035000D03*
%TD*%
%TO.P,R22,1*%
%TO.N,VCC*%
X119500000Y-110712500D03*
%TO.P,R22,2*%
%TO.N,Net-(D22-A)*%
X119500000Y-112537500D03*
%TD*%
%TO.P,R8,1*%
%TO.N,Net-(D8-A)*%
X99100000Y-124175000D03*
%TO.P,R8,2*%
%TO.N,VCC*%
X99100000Y-126000000D03*
%TD*%
%TO.P,R11,1*%
%TO.N,VCC*%
X104300000Y-110712500D03*
%TO.P,R11,2*%
%TO.N,Net-(D11-A)*%
X104300000Y-112537500D03*
%TD*%
%TO.P,R7,1*%
%TO.N,VCC*%
X99200000Y-110712500D03*
%TO.P,R7,2*%
%TO.N,Net-(D7-A)*%
X99200000Y-112537500D03*
%TD*%
%TO.P,R18,1*%
%TO.N,Net-(D18-A)*%
X111800000Y-124260000D03*
%TO.P,R18,2*%
%TO.N,VCC*%
X111800000Y-126085000D03*
%TD*%
%TO.P,R4,1*%
%TO.N,Net-(D4-A)*%
X93990000Y-124175000D03*
%TO.P,R4,2*%
%TO.N,VCC*%
X93990000Y-126000000D03*
%TD*%
%TO.P,R24,1*%
%TO.N,VCC*%
X122100000Y-110712500D03*
%TO.P,R24,2*%
%TO.N,Net-(D24-A)*%
X122100000Y-112537500D03*
%TD*%
%TO.P,R1,1*%
%TO.N,VCC*%
X91450000Y-110712500D03*
%TO.P,R1,2*%
%TO.N,Net-(D1-A)*%
X91450000Y-112537500D03*
%TD*%
%TO.P,R3,1*%
%TO.N,VCC*%
X94100000Y-110712500D03*
%TO.P,R3,2*%
%TO.N,Net-(D3-A)*%
X94100000Y-112537500D03*
%TD*%
%TO.P,R12,1*%
%TO.N,Net-(D12-A)*%
X104060000Y-124225000D03*
%TO.P,R12,2*%
%TO.N,VCC*%
X104060000Y-126050000D03*
%TD*%
%TO.P,R5,1*%
%TO.N,VCC*%
X96700000Y-110712500D03*
%TO.P,R5,2*%
%TO.N,Net-(D5-A)*%
X96700000Y-112537500D03*
%TD*%
%TO.P,R2,1*%
%TO.N,Net-(D2-A)*%
X91500000Y-124175000D03*
%TO.P,R2,2*%
%TO.N,VCC*%
X91500000Y-126000000D03*
%TD*%
%TO.P,R14,1*%
%TO.N,Net-(D14-A)*%
X106720000Y-124305000D03*
%TO.P,R14,2*%
%TO.N,VCC*%
X106720000Y-126130000D03*
%TD*%
%TO.P,R16,1*%
%TO.N,Net-(D16-A)*%
X109300000Y-124305000D03*
%TO.P,R16,2*%
%TO.N,VCC*%
X109300000Y-126130000D03*
%TD*%
%TO.P,R25,1*%
%TO.N,Net-(D25-A)*%
X121970000Y-124285000D03*
%TO.P,R25,2*%
%TO.N,VCC*%
X121970000Y-126110000D03*
%TD*%
%TO.P,R13,1*%
%TO.N,VCC*%
X106950000Y-110712500D03*
%TO.P,R13,2*%
%TO.N,Net-(D13-A)*%
X106950000Y-112537500D03*
%TD*%
%TO.P,R10,1*%
%TO.N,Net-(D10-A)*%
X101650000Y-124205000D03*
%TO.P,R10,2*%
%TO.N,VCC*%
X101650000Y-126030000D03*
%TD*%
D14*
%TO.N,VCC*%
X88000000Y-109000000D03*
%TO.N,/C13*%
X107750000Y-118500000D03*
%TO.N,/C15*%
X110250000Y-119000000D03*
%TO.N,/C17*%
X112750000Y-118250000D03*
X123250000Y-119750000D03*
%TO.N,/C19*%
X123500000Y-118250000D03*
X115750000Y-118000000D03*
%TO.N,/C11*%
X103000000Y-118250000D03*
%TO.N,/C9*%
X87000000Y-119500000D03*
X100500000Y-118250000D03*
%TO.N,/C7*%
X98167947Y-117945298D03*
X87000000Y-118250000D03*
%TO.N,/C5*%
X95500000Y-117500000D03*
X87250000Y-117000000D03*
%TO.N,/P3*%
X90500000Y-118000000D03*
X87250000Y-115250000D03*
%TO.N,/P1*%
X90075000Y-117000000D03*
X87300000Y-114000000D03*
%TO.N,GND*%
X90000000Y-113500000D03*
%TO.N,/M0-*%
X122000000Y-118500000D03*
%TO.N,/M0+*%
X119000000Y-118500000D03*
%TO.N,/C20*%
X117000000Y-118500000D03*
%TO.N,/C18*%
X114000000Y-118500000D03*
%TO.N,/C16*%
X111500000Y-118500000D03*
%TO.N,/C14*%
X109000000Y-118500000D03*
%TO.N,/C12*%
X106500000Y-118500000D03*
%TO.N,/C10*%
X104000000Y-118500000D03*
%TO.N,/C8*%
X101500000Y-118500000D03*
%TO.N,/C6*%
X99000000Y-118500000D03*
%TO.N,/C4*%
X96500000Y-118500000D03*
%TO.N,/P2*%
X94031598Y-118125000D03*
%TO.N,/P0*%
X91456272Y-118750000D03*
%TD*%
D15*
%TO.N,/M1-*%
X121960000Y-92020000D02*
X123380000Y-90600000D01*
X123380000Y-90600000D02*
X125600000Y-90600000D01*
X125600000Y-90600000D02*
X126000000Y-91000000D01*
X126000000Y-91000000D02*
X126000000Y-113000000D01*
X126000000Y-113000000D02*
X122000000Y-117000000D01*
%TO.N,/M1+*%
X119420000Y-92020000D02*
X121240000Y-90200000D01*
X125705026Y-90200000D02*
X126350000Y-90844974D01*
X121240000Y-90200000D02*
X125705026Y-90200000D01*
X126350000Y-90844974D02*
X126350000Y-113906366D01*
X126350000Y-113906366D02*
X122431366Y-117825000D01*
X122431366Y-117825000D02*
X120275000Y-117825000D01*
X120275000Y-117825000D02*
X119450000Y-117000000D01*
%TO.N,/C19*%
X114340000Y-92020000D02*
X116510000Y-89850000D01*
X116510000Y-89850000D02*
X125850000Y-89850000D01*
X126700000Y-115050000D02*
X123500000Y-118250000D01*
X125850000Y-89850000D02*
X126700000Y-90700000D01*
X126700000Y-90700000D02*
X126700000Y-115050000D01*
%TO.N,/C17*%
X111800000Y-92020000D02*
X114320000Y-89500000D01*
X126000000Y-89500000D02*
X127050000Y-90550000D01*
X127050000Y-115950000D02*
X123250000Y-119750000D01*
X114320000Y-89500000D02*
X126000000Y-89500000D01*
X127050000Y-90550000D02*
X127050000Y-115950000D01*
%TO.N,/P1*%
X91480000Y-92020000D02*
X89960000Y-90500000D01*
X89960000Y-90500000D02*
X87500000Y-90500000D01*
X87500000Y-90500000D02*
X87000000Y-91000000D01*
X87000000Y-91000000D02*
X87000000Y-113700000D01*
X87000000Y-113700000D02*
X87300000Y-114000000D01*
%TO.N,/P3*%
X94020000Y-92020000D02*
X92050000Y-90050000D01*
X86625000Y-90875000D02*
X86625000Y-114625000D01*
X92050000Y-90050000D02*
X87450000Y-90050000D01*
X87450000Y-90050000D02*
X86625000Y-90875000D01*
X86625000Y-114625000D02*
X87250000Y-115250000D01*
%TO.N,/C5*%
X96560000Y-92020000D02*
X94240000Y-89700000D01*
X86250000Y-116000000D02*
X87250000Y-117000000D01*
X94240000Y-89700000D02*
X87294974Y-89700000D01*
X87294974Y-89700000D02*
X86250000Y-90744974D01*
X86250000Y-90744974D02*
X86250000Y-116000000D01*
%TO.N,/C7*%
X99100000Y-92020000D02*
X96430000Y-89350000D01*
X96430000Y-89350000D02*
X87150000Y-89350000D01*
X87150000Y-89350000D02*
X85900000Y-90600000D01*
X85900000Y-90600000D02*
X85900000Y-117150000D01*
X85900000Y-117150000D02*
X87000000Y-118250000D01*
%TO.N,/C9*%
X101640000Y-92020000D02*
X98620000Y-89000000D01*
X98620000Y-89000000D02*
X87000000Y-89000000D01*
X85550000Y-118050000D02*
X87000000Y-119500000D01*
X87000000Y-89000000D02*
X85550000Y-90450000D01*
X85550000Y-90450000D02*
X85550000Y-118050000D01*
D16*
%TO.N,VCC*%
X88960000Y-110767500D02*
X88000000Y-111727500D01*
X88000000Y-111727500D02*
X88000000Y-120250000D01*
X90725000Y-125225000D02*
X91500000Y-126000000D01*
X88000000Y-120250000D02*
X90725000Y-122975000D01*
X90725000Y-122975000D02*
X90725000Y-125225000D01*
X88000000Y-109000000D02*
X88960000Y-109960000D01*
X88960000Y-109960000D02*
X88960000Y-110767500D01*
D15*
%TO.N,/C13*%
X107750000Y-118500000D02*
X106900000Y-117650000D01*
X106900000Y-117650000D02*
X106900000Y-117000000D01*
%TO.N,/C15*%
X110250000Y-117800000D02*
X109450000Y-117000000D01*
X110250000Y-119000000D02*
X110250000Y-117800000D01*
%TO.N,/C17*%
X112750000Y-118250000D02*
X112750000Y-117800000D01*
X112750000Y-117800000D02*
X111950000Y-117000000D01*
%TO.N,/C19*%
X115750000Y-118000000D02*
X115500000Y-118000000D01*
X115500000Y-118000000D02*
X114500000Y-117000000D01*
%TO.N,/C11*%
X104250000Y-117000000D02*
X104300000Y-117000000D01*
X103000000Y-118250000D02*
X104250000Y-117000000D01*
%TO.N,/C9*%
X100500000Y-118250000D02*
X101700000Y-117050000D01*
X101700000Y-117050000D02*
X101700000Y-117000000D01*
%TO.N,/C7*%
X98167947Y-117945298D02*
X98254702Y-117945298D01*
X98254702Y-117945298D02*
X99200000Y-117000000D01*
%TO.N,/C5*%
X95500000Y-117500000D02*
X96200000Y-117500000D01*
X96200000Y-117500000D02*
X96700000Y-117000000D01*
%TO.N,/P3*%
X90500000Y-118000000D02*
X93100000Y-118000000D01*
X93100000Y-118000000D02*
X94100000Y-117000000D01*
D16*
%TO.N,/P0*%
X91456272Y-118750000D02*
X91456272Y-119706272D01*
X91456272Y-119706272D02*
X91500000Y-119750000D01*
D15*
%TO.N,/P1*%
X90075000Y-117000000D02*
X91500000Y-117000000D01*
D16*
%TO.N,GND*%
X89000000Y-116900000D02*
X90000000Y-115900000D01*
X90000000Y-115900000D02*
X90000000Y-113500000D01*
%TO.N,Net-(D24-A)*%
X122100000Y-112537500D02*
X122100000Y-115150000D01*
X122100000Y-115150000D02*
X122000000Y-115250000D01*
%TO.N,Net-(D22-A)*%
X119500000Y-112537500D02*
X119500000Y-115200000D01*
X119500000Y-115200000D02*
X119450000Y-115250000D01*
%TO.N,Net-(D19-A)*%
X114500000Y-112537500D02*
X114500000Y-115250000D01*
%TO.N,Net-(D17-A)*%
X112000000Y-112537500D02*
X112000000Y-115200000D01*
X112000000Y-115200000D02*
X111950000Y-115250000D01*
%TO.N,Net-(D15-A)*%
X109400000Y-112537500D02*
X109400000Y-115200000D01*
X109400000Y-115200000D02*
X109450000Y-115250000D01*
%TO.N,Net-(D13-A)*%
X106950000Y-112537500D02*
X106950000Y-115200000D01*
X106950000Y-115200000D02*
X106900000Y-115250000D01*
%TO.N,Net-(D11-A)*%
X104300000Y-112537500D02*
X104300000Y-115250000D01*
%TO.N,Net-(D9-A)*%
X101700000Y-112537500D02*
X101700000Y-115250000D01*
%TO.N,Net-(D7-A)*%
X99200000Y-112537500D02*
X99200000Y-115250000D01*
%TO.N,Net-(D5-A)*%
X96700000Y-112537500D02*
X96700000Y-115250000D01*
%TO.N,Net-(D3-A)*%
X94100000Y-115250000D02*
X94100000Y-112537500D01*
%TO.N,/M0-*%
X122000000Y-119640000D02*
X121890000Y-119750000D01*
X122000000Y-118500000D02*
X122000000Y-119640000D01*
%TO.N,/M0+*%
X119390000Y-118890000D02*
X119000000Y-118500000D01*
X119390000Y-119750000D02*
X119390000Y-118890000D01*
%TO.N,/C20*%
X117000000Y-118500000D02*
X117000000Y-119640000D01*
X117000000Y-119640000D02*
X116890000Y-119750000D01*
%TO.N,/C18*%
X114000000Y-118500000D02*
X114000000Y-119460000D01*
X114000000Y-119460000D02*
X114290000Y-119750000D01*
%TO.N,/C16*%
X111500000Y-119560000D02*
X111690000Y-119750000D01*
X111500000Y-118500000D02*
X111500000Y-119560000D01*
%TO.N,/C14*%
X109000000Y-118500000D02*
X109000000Y-119660000D01*
X109000000Y-119660000D02*
X109090000Y-119750000D01*
%TO.N,/C12*%
X106680000Y-118680000D02*
X106500000Y-118500000D01*
X106680000Y-119750000D02*
X106680000Y-118680000D01*
%TO.N,/C10*%
X104000000Y-119630000D02*
X104120000Y-119750000D01*
X104000000Y-118500000D02*
X104000000Y-119630000D01*
%TO.N,/C6*%
X99000000Y-119740000D02*
X98990000Y-119750000D01*
X99000000Y-118500000D02*
X99000000Y-119740000D01*
%TO.N,/C4*%
X96490000Y-118510000D02*
X96500000Y-118500000D01*
X96490000Y-119750000D02*
X96490000Y-118510000D01*
%TO.N,/P2*%
X94031598Y-119666598D02*
X94090000Y-119725000D01*
X94031598Y-118125000D02*
X94031598Y-119666598D01*
%TO.N,Net-(D25-A)*%
X121890000Y-121500000D02*
X121890000Y-124205000D01*
X121890000Y-124205000D02*
X121970000Y-124285000D01*
%TO.N,Net-(D23-A)*%
X119390000Y-121500000D02*
X119390000Y-124235000D01*
X119390000Y-124235000D02*
X119370000Y-124255000D01*
%TO.N,Net-(D21-A)*%
X116890000Y-121500000D02*
X116890000Y-124195000D01*
X116890000Y-124195000D02*
X116950000Y-124255000D01*
%TO.N,Net-(D20-A)*%
X114290000Y-121500000D02*
X114290000Y-124130000D01*
X114290000Y-124130000D02*
X114370000Y-124210000D01*
%TO.N,Net-(D18-A)*%
X111690000Y-121500000D02*
X111690000Y-124150000D01*
X111690000Y-124150000D02*
X111800000Y-124260000D01*
%TO.N,Net-(D16-A)*%
X109090000Y-121500000D02*
X109090000Y-124095000D01*
X109090000Y-124095000D02*
X109300000Y-124305000D01*
%TO.N,Net-(D14-A)*%
X106720000Y-124305000D02*
X106720000Y-121540000D01*
X106720000Y-121540000D02*
X106680000Y-121500000D01*
%TO.N,Net-(D12-A)*%
X104120000Y-121500000D02*
X104120000Y-124165000D01*
X104120000Y-124165000D02*
X104060000Y-124225000D01*
%TO.N,Net-(D10-A)*%
X101650000Y-124205000D02*
X101650000Y-121515000D01*
X101650000Y-121515000D02*
X101690000Y-121475000D01*
%TO.N,Net-(D8-A)*%
X98990000Y-121500000D02*
X98990000Y-124065000D01*
X98990000Y-124065000D02*
X99100000Y-124175000D01*
%TO.N,Net-(D6-A)*%
X96570000Y-124175000D02*
X96570000Y-121580000D01*
X96570000Y-121580000D02*
X96490000Y-121500000D01*
%TO.N,Net-(D4-A)*%
X94090000Y-121475000D02*
X94090000Y-124075000D01*
X94090000Y-124075000D02*
X93990000Y-124175000D01*
%TO.N,Net-(D2-A)*%
X91500000Y-124175000D02*
X91500000Y-121500000D01*
%TO.N,VCC*%
X91500000Y-126000000D02*
X121860000Y-126000000D01*
X121860000Y-126000000D02*
X121970000Y-126110000D01*
%TO.N,Net-(D101-A)*%
X88960000Y-112592500D02*
X88960000Y-115110000D01*
X88960000Y-115110000D02*
X89000000Y-115150000D01*
%TO.N,Net-(D1-A)*%
X91450000Y-112537500D02*
X91450000Y-115200000D01*
X91450000Y-115200000D02*
X91500000Y-115250000D01*
%TO.N,/C8*%
X101690000Y-118690000D02*
X101500000Y-118500000D01*
X101690000Y-119725000D02*
X101690000Y-118690000D01*
%TO.N,VCC*%
X122100000Y-110712500D02*
X114500000Y-110712500D01*
X88960000Y-110767500D02*
X114445000Y-110767500D01*
X114445000Y-110767500D02*
X114500000Y-110712500D01*
%TD*%
M02*
