%TF.GenerationSoftware,KiCad,Pcbnew,8.0.9-8.0.9-0~ubuntu22.04.1*%
%TF.CreationDate,2025-09-30T16:22:56+02:00*%
%TF.ProjectId,Pin_Test,50696e5f-5465-4737-942e-6b696361645f,rev?*%
%TF.SameCoordinates,Original*%
%TF.FileFunction,Copper,L2,Bot*%
%TF.FilePolarity,Positive*%
%FSLAX46Y46*%
G04 Gerber Fmt 4.6, Leading zero omitted, Abs format (unit mm)*
G04 Created by KiCad (PCBNEW 8.0.9-8.0.9-0~ubuntu22.04.1) date 2025-09-30 16:22:56*
%MOMM*%
%LPD*%
G01*
G04 APERTURE LIST*
%TA.AperFunction,ComponentPad*%
%ADD10C,2.200000*%
%TD*%
%TA.AperFunction,ViaPad*%
%ADD11C,0.800000*%
%TD*%
%TA.AperFunction,Conductor*%
%ADD12C,0.150000*%
%TD*%
%TA.AperFunction,Conductor*%
%ADD13C,0.200000*%
%TD*%
G04 APERTURE END LIST*
D10*
%TO.P,J1,1,VCC*%
%TO.N,VCC*%
X88940000Y-92020000D03*
%TO.P,J1,2,GND*%
%TO.N,GND*%
X88940000Y-94560000D03*
%TO.P,J1,3,P1*%
%TO.N,/P1*%
X91480000Y-92020000D03*
%TO.P,J1,4,P0*%
%TO.N,/P0*%
X91480000Y-94560000D03*
%TO.P,J1,5,P3*%
%TO.N,/P3*%
X94020000Y-92020000D03*
%TO.P,J1,6,P2*%
%TO.N,/P2*%
X94020000Y-94560000D03*
%TO.P,J1,7,C5*%
%TO.N,/C5*%
X96560000Y-92020000D03*
%TO.P,J1,8,C4*%
%TO.N,/C4*%
X96560000Y-94560000D03*
%TO.P,J1,9,C7*%
%TO.N,/C7*%
X99100000Y-92020000D03*
%TO.P,J1,10,C6*%
%TO.N,/C6*%
X99100000Y-94560000D03*
%TO.P,J1,11,C9*%
%TO.N,/C9*%
X101640000Y-92020000D03*
%TO.P,J1,12,C8*%
%TO.N,/C8*%
X101640000Y-94560000D03*
%TO.P,J1,13,C11*%
%TO.N,/C11*%
X104180000Y-92020000D03*
%TO.P,J1,14,C10*%
%TO.N,/C10*%
X104180000Y-94560000D03*
%TO.P,J1,15,C13*%
%TO.N,/C13*%
X106720000Y-92020000D03*
%TO.P,J1,16,C12*%
%TO.N,/C12*%
X106720000Y-94560000D03*
%TO.P,J1,17,C15*%
%TO.N,/C15*%
X109260000Y-92020000D03*
%TO.P,J1,18,C14*%
%TO.N,/C14*%
X109260000Y-94560000D03*
%TO.P,J1,19,C17*%
%TO.N,/C17*%
X111800000Y-92020000D03*
%TO.P,J1,20,C16*%
%TO.N,/C16*%
X111800000Y-94560000D03*
%TO.P,J1,21,C19*%
%TO.N,/C19*%
X114340000Y-92020000D03*
%TO.P,J1,22,C18*%
%TO.N,/C18*%
X114340000Y-94560000D03*
%TO.P,J1,23,GND*%
%TO.N,unconnected-(J1-GND-Pad23)*%
X116880000Y-92020000D03*
%TO.P,J1,24,C20*%
%TO.N,/C20*%
X116880000Y-94560000D03*
%TO.P,J1,25,M1+*%
%TO.N,/M1+*%
X119420000Y-92020000D03*
%TO.P,J1,26,M0+*%
%TO.N,/M0+*%
X119420000Y-94560000D03*
%TO.P,J1,27,M1-*%
%TO.N,/M1-*%
X121960000Y-92020000D03*
%TO.P,J1,28,M0-*%
%TO.N,/M0-*%
X121960000Y-94560000D03*
%TO.P,J1,29,GND*%
%TO.N,unconnected-(J1-GND-Pad29)*%
X124500000Y-92020000D03*
%TO.P,J1,30,VM+*%
%TO.N,/VM+*%
X124500000Y-94560000D03*
%TD*%
D11*
%TO.N,VCC*%
X88000000Y-109000000D03*
%TO.N,/C13*%
X107750000Y-118500000D03*
%TO.N,/C15*%
X110250000Y-119000000D03*
%TO.N,/C17*%
X112750000Y-118250000D03*
X123250000Y-119750000D03*
%TO.N,/C19*%
X123500000Y-118250000D03*
X115750000Y-118000000D03*
%TO.N,/C11*%
X103000000Y-118250000D03*
%TO.N,/C9*%
X87000000Y-119500000D03*
X100500000Y-118250000D03*
%TO.N,/C7*%
X98167947Y-117945298D03*
X87000000Y-118250000D03*
%TO.N,/C5*%
X95500000Y-117500000D03*
X87250000Y-117000000D03*
%TO.N,/P3*%
X90500000Y-118000000D03*
X87250000Y-115250000D03*
%TO.N,/P1*%
X90075000Y-117000000D03*
X87300000Y-114000000D03*
%TO.N,GND*%
X90000000Y-113500000D03*
%TO.N,/M0-*%
X122000000Y-118500000D03*
%TO.N,/M0+*%
X119000000Y-118500000D03*
%TO.N,/C20*%
X117000000Y-118500000D03*
%TO.N,/C18*%
X114000000Y-118500000D03*
%TO.N,/C16*%
X111500000Y-118500000D03*
%TO.N,/C14*%
X109000000Y-118500000D03*
%TO.N,/C12*%
X106500000Y-118500000D03*
%TO.N,/C10*%
X104000000Y-118500000D03*
%TO.N,/C8*%
X101500000Y-118500000D03*
%TO.N,/C6*%
X99000000Y-118500000D03*
%TO.N,/C4*%
X96500000Y-118500000D03*
%TO.N,/P2*%
X94031598Y-118125000D03*
%TO.N,/P0*%
X91456272Y-118750000D03*
%TD*%
D12*
%TO.N,/C15*%
X109260000Y-92020000D02*
X110885000Y-90395000D01*
X110885000Y-90395000D02*
X125195000Y-90395000D01*
X125195000Y-90395000D02*
X126000000Y-91200000D01*
X126000000Y-91200000D02*
X126000000Y-118000000D01*
X126000000Y-118000000D02*
X123250000Y-120750000D01*
X123250000Y-120750000D02*
X112000000Y-120750000D01*
X112000000Y-120750000D02*
X110250000Y-119000000D01*
%TO.N,/C13*%
X106720000Y-92020000D02*
X108695000Y-90045000D01*
X108695000Y-90045000D02*
X125445000Y-90045000D01*
X125445000Y-90045000D02*
X126350000Y-90950000D01*
X126350000Y-90950000D02*
X126350000Y-118144975D01*
X122730766Y-121764209D02*
X111014209Y-121764209D01*
X126350000Y-118144975D02*
X122730766Y-121764209D01*
X111014209Y-121764209D02*
X107750000Y-118500000D01*
D13*
%TO.N,VCC*%
X88940000Y-92020000D02*
X87000000Y-93960000D01*
X87000000Y-93960000D02*
X87000000Y-108000000D01*
X87000000Y-108000000D02*
X88000000Y-109000000D01*
%TO.N,/M0-*%
X121960000Y-94560000D02*
X121960000Y-118460000D01*
X121960000Y-118460000D02*
X122000000Y-118500000D01*
%TO.N,/M0+*%
X119000000Y-118500000D02*
X119420000Y-118080000D01*
X119420000Y-118080000D02*
X119420000Y-94560000D01*
%TO.N,/C20*%
X116880000Y-94560000D02*
X116880000Y-118380000D01*
X116880000Y-118380000D02*
X117000000Y-118500000D01*
%TO.N,/C18*%
X114340000Y-94560000D02*
X114340000Y-118160000D01*
X114340000Y-118160000D02*
X114000000Y-118500000D01*
%TO.N,/C16*%
X111800000Y-94560000D02*
X111800000Y-118200000D01*
X111800000Y-118200000D02*
X111500000Y-118500000D01*
%TO.N,/C14*%
X109260000Y-94560000D02*
X109260000Y-118240000D01*
X109260000Y-118240000D02*
X109000000Y-118500000D01*
%TO.N,/C12*%
X106500000Y-118500000D02*
X106720000Y-118280000D01*
X106720000Y-118280000D02*
X106720000Y-94560000D01*
%TO.N,/C10*%
X104180000Y-94560000D02*
X104180000Y-118320000D01*
X104180000Y-118320000D02*
X104000000Y-118500000D01*
%TO.N,/C8*%
X101500000Y-118500000D02*
X101500000Y-117500000D01*
X101500000Y-117500000D02*
X101640000Y-117360000D01*
X101640000Y-117360000D02*
X101640000Y-94560000D01*
%TO.N,/C6*%
X99100000Y-94560000D02*
X99100000Y-118400000D01*
X99100000Y-118400000D02*
X99000000Y-118500000D01*
%TO.N,/C4*%
X96500000Y-118500000D02*
X96560000Y-118440000D01*
X96560000Y-118440000D02*
X96560000Y-94560000D01*
%TO.N,/P2*%
X94020000Y-94560000D02*
X94020000Y-118113402D01*
X94020000Y-118113402D02*
X94031598Y-118125000D01*
%TO.N,/P0*%
X91456272Y-118750000D02*
X91480000Y-118726272D01*
X91480000Y-118726272D02*
X91480000Y-94560000D01*
%TO.N,GND*%
X88940000Y-94560000D02*
X88940000Y-112440000D01*
X88940000Y-112440000D02*
X90000000Y-113500000D01*
D12*
%TO.N,/C17*%
X114250000Y-119750000D02*
X112750000Y-118250000D01*
X123250000Y-119750000D02*
X114250000Y-119750000D01*
%TO.N,/C19*%
X115750000Y-118204595D02*
X115750000Y-118000000D01*
X122575000Y-119175000D02*
X116720405Y-119175000D01*
X116720405Y-119175000D02*
X115750000Y-118204595D01*
X123500000Y-118250000D02*
X122575000Y-119175000D01*
%TO.N,/C9*%
X87000000Y-119500000D02*
X87625000Y-120125000D01*
X87625000Y-120125000D02*
X98625000Y-120125000D01*
X98625000Y-120125000D02*
X100500000Y-118250000D01*
%TO.N,/C7*%
X96338245Y-119775000D02*
X98167947Y-117945298D01*
X87000000Y-118250000D02*
X88525000Y-119775000D01*
X88525000Y-119775000D02*
X96338245Y-119775000D01*
%TO.N,/C5*%
X93686193Y-119425000D02*
X89675000Y-119425000D01*
X89675000Y-119425000D02*
X87250000Y-117000000D01*
X95500000Y-117500000D02*
X95500000Y-117611193D01*
X95500000Y-117611193D02*
X93686193Y-119425000D01*
%TO.N,/P3*%
X90000000Y-118000000D02*
X90500000Y-118000000D01*
X87250000Y-115250000D02*
X90000000Y-118000000D01*
%TO.N,/P1*%
X87300000Y-114225000D02*
X90075000Y-117000000D01*
X87300000Y-114000000D02*
X87300000Y-114225000D01*
%TO.N,/C11*%
X100250000Y-121000000D02*
X103000000Y-118250000D01*
X87250000Y-121000000D02*
X100250000Y-121000000D01*
X86200000Y-92253438D02*
X86200000Y-119950000D01*
X88203438Y-90250000D02*
X86200000Y-92253438D01*
X102410000Y-90250000D02*
X88203438Y-90250000D01*
X86200000Y-119950000D02*
X87250000Y-121000000D01*
X104180000Y-92020000D02*
X102410000Y-90250000D01*
%TD*%
M02*
